<svg width="23" height="23" viewBox="0 0 23 23" fill="none" xmlns="http://www.w3.org/2000/svg">
    <g clip-path="url(#ptb6r2abya)">
        <path d="M10.542 6.708h1.917v1.917h-1.917V6.708zm0 3.833h1.917v5.75h-1.917v-5.75zm.958-8.625c-5.29 0-9.583 4.294-9.583 9.584s4.293 9.583 9.583 9.583 9.584-4.293 9.584-9.583S16.79 1.916 11.5 1.916zm0 17.25c-4.226 0-7.666-3.44-7.666-7.666 0-4.226 3.44-7.667 7.666-7.667 4.227 0 7.667 3.44 7.667 7.667 0 4.226-3.44 7.666-7.667 7.666z" fill="#989898"/>
    </g>
    <defs>
        <clipPath id="ptb6r2abya">
            <path fill="#fff" d="M0 0h23v23H0z"/>
        </clipPath>
    </defs>
</svg>
