<svg width="1332" height="202" viewBox="0 0 1332 202" fill="none" xmlns="http://www.w3.org/2000/svg">
    <g clip-path="url(#qwkp6xzyga)">
        <path d="M72.84.952C32.618.952 0 33.633 0 73.932c0 40.3 32.618 72.981 72.84 72.981 40.221 0 72.839-32.681 72.839-72.98 0-40.3-32.618-72.98-72.84-72.98z" fill="#fff"/>
        <path d="M109.153 37.015c-4.051-4.059-14.924 2.242-23.451 8.294a31.805 31.805 0 0 0-13.857-3.168c-17.837 0-32.298 14.525-32.298 32.36 0 4.985 1.172 9.684 3.197 13.92-6.111 8.58-12.365 19.438-8.314 23.497.924.925 2.167 1.388 3.802 1.388 3.34 0 8.208-1.994 14.497-5.981 1.705-1.068 3.517-2.314 5.33-3.631 4.192 2.029 8.847 3.204 13.821 3.204 17.802 0 32.298-14.525 32.298-32.36 0-4.985-1.172-9.648-3.198-13.85 1.315-1.815 2.523-3.63 3.625-5.304 5.862-9.327 7.426-15.486 4.583-18.334l-.035-.035zM99.24 57.449a127.035 127.035 0 0 1-6.254 8.26l-.107.106c-.675.855-1.421 1.709-2.132 2.563-.213.285-.462.534-.675.784-.64.747-1.243 1.495-1.918 2.242-.391.463-.818.926-1.209 1.353-.568.605-1.1 1.21-1.67 1.852-.603.676-1.243 1.352-1.883 2.029-.426.427-.817.854-1.243 1.317a304.473 304.473 0 0 1-3.376 3.453c-1.137 1.14-2.274 2.278-3.41 3.346-.463.463-.924.855-1.386 1.282-.64.641-1.315 1.246-1.99 1.851-.604.57-1.208 1.14-1.848 1.673-.462.428-.924.82-1.386 1.247-.71.64-1.456 1.281-2.167 1.886-.284.25-.604.499-.888.748-.817.712-1.67 1.424-2.452 2.065a1.972 1.972 0 0 0-.284.213 119.63 119.63 0 0 1-8.03 6.088c-1.35.961-2.7 1.887-3.944 2.706-9.38 5.909-13.396 5.945-14.284 5.055-1.172-1.175.107-6.942 7.781-18.05a32.98 32.98 0 0 0 7.569 8.438c6.466-4.415 14.816-11.214 24.48-20.862C86.2 69.446 92.88 61.08 97.322 54.565a32.951 32.951 0 0 0-8.421-7.582c11.086-7.69 16.842-8.936 18.014-7.797.924.926.853 4.949-5.045 14.312-.782 1.245-1.67 2.527-2.594 3.844l-.035.107z" fill="#000"/>
        <path d="M177.088 105.297h17.624V22.775h-17.624v82.522zM210.488 105.297h16.345V68.415c2.452-3.418 6.821-7.049 12.577-7.049 6.253 0 10.944 3.525 10.944 11.072v32.859h16.345V70.302c0-13.066-8.102-23.212-22.918-23.212-8.138 0-14.461 3.774-18.832 8.83v-7.192h-14.461v56.569zM307.56 106.971c7.178 0 13.538-1.424 19.046-3.774v-14.49c-4.121 2.457-10.02 4.024-15.882 4.024-8.812 0-17.269-4.842-17.269-15.7 0-11.428 8.704-15.771 17.516-15.771 5.437 0 11.052 1.638 15.066 4.236V51.114c-5.081-2.706-11.192-4.13-17.41-4.13-15.635 0-31.872 9.185-31.872 30.866 0 20.15 15.42 29.121 30.841 29.121h-.036zM367.182 106.969c8.457 0 15.387-1.281 20.68-3.524V90.593c-4.797 1.994-10.589 3.311-17.054 3.311-9.31 0-18.015-3.31-19.899-11.534h39.76c3.766-16.733-3.767-35.245-27.182-35.245-12.684 0-29.064 8.616-29.064 29.94 0 19.687 14.816 29.94 32.725 29.94l.034-.036zm-16.343-35.244c.248-7.76 6.359-12.14 13.289-12.14 10.127 0 12.364 8.26 11.654 12.14h-24.943zM402.109 132.129h16.345v-31.827c3.659 3.881 9.629 7.548 18.582 7.548 17.872 0 27.501-14.49 27.501-29.94 0-15.45-9.629-29.94-27.501-29.94-10.339 0-16.807 4.806-20.466 9.897v-8.26h-14.461v82.522zm30.949-38.057c-7.071 0-12.367-4.592-14.568-9.434V71.181c2.237-4.841 7.497-9.434 14.568-9.434 9.415 0 14.815 7.298 14.815 16.127 0 8.83-5.436 16.163-14.815 16.163v.035zM499.998 109.718c5.65 0 10.803-.961 15.172-2.456V94.054c-3.304 1.175-6.465 1.745-10.232 1.745-6.112 0-8.955-2.493-8.955-8.367V65.29h17.765V51.476h-17.765V31.077l-16.344 3.88v16.52h-9.522v13.812h9.522v25.312c0 14.026 9.417 19.082 20.359 19.082v.035zM878.358 201.381v-37.38h16.817c4.32 0 7.639.872 9.961 2.617 2.32 1.709 3.481 4.058 3.481 7.049 0 2.029-.464 3.738-1.392 5.126-.894 1.388-2.107 2.456-3.642 3.204-1.535.748-3.196 1.121-4.98 1.121l.964-1.602c2.141 0 4.035.374 5.676 1.122 1.642.747 2.946 1.851 3.91 3.311.963 1.424 1.446 3.203 1.446 5.34 0 3.204-1.214 5.696-3.642 7.477-2.392 1.742-5.963 2.615-10.712 2.615h-17.887zm5.356-4.325h12.317c2.964 0 5.232-.499 6.802-1.495 1.571-.996 2.356-2.563 2.356-4.7 0-2.171-.785-3.755-2.356-4.752-1.57-.997-3.838-1.495-6.802-1.495h-12.8v-4.326h11.461c2.714 0 4.82-.498 6.321-1.495 1.499-.997 2.249-2.492 2.249-4.486 0-1.993-.75-3.489-2.249-4.485-1.501-.997-3.607-1.495-6.321-1.495h-10.978v28.729zM930.78 201.702c-3.034 0-5.712-.623-8.032-1.869-2.286-1.246-4.071-2.955-5.356-5.128-1.249-2.17-1.875-4.662-1.875-7.475 0-2.812.607-5.304 1.821-7.476 1.249-2.171 2.945-3.862 5.088-5.073 2.178-1.246 4.623-1.869 7.336-1.869 2.75 0 5.177.605 7.285 1.816 2.106 1.21 3.747 2.919 4.927 5.126 1.214 2.172 1.82 4.717 1.82 7.636 0 .214-.019.463-.054.748 0 .285-.017.552-.053.802h-24.153v-3.686h21.474l-2.087 1.282c.036-1.815-.34-3.435-1.125-4.859a8.337 8.337 0 0 0-3.266-3.311c-1.357-.819-2.946-1.228-4.768-1.228-1.785 0-3.374.409-4.766 1.228-1.392.783-2.481 1.904-3.267 3.364-.785 1.424-1.177 3.062-1.177 4.913v.854c0 1.888.428 3.578 1.285 5.073.892 1.46 2.124 2.599 3.695 3.419 1.57.818 3.373 1.227 5.41 1.227 1.677 0 3.195-.285 4.551-.854a10.001 10.001 0 0 0 3.643-2.563l2.838 3.31c-1.287 1.495-2.893 2.634-4.82 3.418-1.894.783-4.016 1.175-6.374 1.175zM960.679 201.702c-2.855 0-5.07-.766-6.64-2.296-1.571-1.531-2.358-3.721-2.358-6.569v-25.952h5.142v25.738c0 1.531.375 2.707 1.125 3.525.785.818 1.891 1.229 3.321 1.229 1.606 0 2.945-.446 4.016-1.335l1.606 3.684c-.785.676-1.732 1.175-2.838 1.496-1.071.32-2.196.48-3.374.48zm-13.816-24.404v-4.219h18.101v4.219h-18.101zM990.729 201.381V195.4l-.269-1.12v-10.2c0-2.172-.642-3.845-1.927-5.02-1.249-1.21-3.143-1.816-5.677-1.816-1.679 0-3.321.285-4.927.855-1.606.534-2.964 1.264-4.071 2.189l-2.141-3.845c1.463-1.174 3.212-2.065 5.248-2.67 2.07-.64 4.231-.961 6.479-.961 3.893 0 6.892.944 8.998 2.83 2.106 1.887 3.16 4.771 3.16 8.651v17.088h-4.873zm-9.319.321c-2.106 0-3.964-.357-5.57-1.068-1.57-.713-2.784-1.692-3.642-2.938-.857-1.281-1.285-2.722-1.285-4.324 0-1.531.357-2.92 1.071-4.166.749-1.246 1.946-2.243 3.587-2.99 1.68-.748 3.928-1.122 6.75-1.122h8.996v3.685h-8.782c-2.572 0-4.304.427-5.196 1.281-.892.856-1.337 1.887-1.337 3.098 0 1.388.552 2.51 1.658 3.364 1.109.819 2.643 1.228 4.606 1.228 1.928 0 3.607-.427 5.035-1.281 1.463-.855 2.517-2.101 3.159-3.739l1.019 3.525c-.679 1.674-1.875 3.008-3.588 4.006-1.715.96-3.876 1.441-6.481 1.441zM559.49 109.77v-78.8h6.875l36.067 61.464h-3.607l35.729-61.463h6.876v78.799h-8.003V43.466h1.916l-32.911 56.285h-3.945l-33.136-56.285h2.141v66.304h-8.002zM702.529 109.77V96.712l-.338-2.139V72.735c0-5.028-1.428-8.893-4.283-11.595-2.78-2.702-6.951-4.053-12.511-4.053-3.832 0-7.476.638-10.933 1.914-3.456 1.276-6.387 2.965-8.791 5.066l-3.607-5.966c3.006-2.552 6.612-4.503 10.82-5.854 4.208-1.426 8.641-2.139 13.3-2.139 7.664 0 13.563 1.914 17.695 5.741 4.208 3.753 6.312 9.494 6.312 17.223v36.698h-7.664zm-20.401.563c-4.433 0-8.302-.713-11.609-2.139-3.231-1.501-5.71-3.527-7.438-6.078-1.729-2.627-2.593-5.629-2.593-9.006 0-3.077.714-5.854 2.142-8.33 1.503-2.552 3.907-4.578 7.213-6.08 3.381-1.575 7.89-2.363 13.525-2.363h20.401v5.966h-20.175c-5.711 0-9.693 1.013-11.947 3.04-2.18 2.026-3.269 4.54-3.269 7.542 0 3.377 1.315 6.079 3.945 8.105 2.63 2.026 6.312 3.039 11.045 3.039 4.509 0 8.378-1.013 11.609-3.039 3.307-2.102 5.711-5.103 7.214-9.006l1.803 5.516c-1.503 3.903-4.133 7.017-7.89 9.343-3.681 2.327-8.34 3.49-13.976 3.49zM731.926 109.77V50.671h7.664v16.098l-.789-2.815c1.653-4.502 4.434-7.917 8.341-10.244 3.907-2.401 8.754-3.602 14.539-3.602v7.768h-.901a3.71 3.71 0 0 0-.902-.113c-6.237 0-11.121 1.914-14.652 5.741-3.532 3.752-5.298 9.118-5.298 16.098v30.168h-8.002zM782.597 94.461l.225-10.244 36.856-33.545h9.806l-26.036 24.877-4.508 3.828-16.343 15.084zm-6.312 15.31V26.244h8.003v83.527h-8.003zm45.873 0-24.683-30.732 5.184-6.191 29.305 36.923h-9.806zM866.799 110.333c-6.162 0-11.572-1.276-16.231-3.827-4.658-2.627-8.303-6.192-10.932-10.694-2.63-4.578-3.945-9.794-3.945-15.648 0-5.853 1.239-11.032 3.719-15.534 2.555-4.503 6.011-8.03 10.369-10.582 4.434-2.627 9.393-3.94 14.878-3.94 5.56 0 10.482 1.276 14.765 3.828 4.358 2.476 7.777 6.003 10.257 10.581 2.479 4.503 3.719 9.719 3.719 15.647 0 .376-.038.788-.113 1.239v1.238h-51.508v-5.966h47.225l-3.156 2.364c0-4.278-.939-8.068-2.817-11.37-1.804-3.377-4.283-6.004-7.439-7.88-3.156-1.876-6.8-2.814-10.933-2.814-4.057 0-7.702.938-10.933 2.814-3.231 1.876-5.748 4.503-7.551 7.88-1.804 3.377-2.705 7.242-2.705 11.595v1.238c0 4.503.976 8.48 2.93 11.933 2.029 3.377 4.809 6.04 8.341 7.992 3.606 1.876 7.701 2.814 12.285 2.814 3.607 0 6.95-.638 10.031-1.913 3.156-1.276 5.861-3.228 8.115-5.854l4.509 5.178c-2.63 3.152-5.936 5.554-9.919 7.205-3.907 1.651-8.228 2.476-12.961 2.476zM928.396 110.333c-5.561 0-9.844-1.501-12.849-4.503-3.006-3.002-4.509-7.242-4.509-12.72V37.613h8.003v55.046c0 3.453.864 6.117 2.592 7.993 1.803 1.876 4.358 2.814 7.664 2.814 3.532 0 6.462-1.013 8.792-3.039l2.817 5.741c-1.578 1.426-3.494 2.476-5.748 3.152a22.721 22.721 0 0 1-6.762 1.013zm-27.952-53.02V50.67h36.63v6.641h-36.63zM971.366 110.333c-4.884 0-9.505-.675-13.863-2.026-4.358-1.426-7.777-3.19-10.257-5.291l3.607-6.304c2.404 1.801 5.485 3.377 9.242 4.728 3.757 1.276 7.702 1.914 11.835 1.914 5.635 0 9.693-.863 12.172-2.589 2.48-1.801 3.72-4.165 3.72-7.092 0-2.177-.714-3.865-2.142-5.066-1.352-1.276-3.156-2.214-5.41-2.814-2.254-.676-4.771-1.238-7.551-1.689-2.781-.45-5.561-.975-8.341-1.576-2.705-.6-5.184-1.463-7.439-2.589-2.254-1.2-4.095-2.814-5.522-4.84-1.353-2.027-2.029-4.728-2.029-8.105 0-3.227.901-6.117 2.705-8.668 1.803-2.552 4.433-4.54 7.89-5.967 3.531-1.5 7.814-2.25 12.848-2.25 3.833 0 7.665.524 11.497 1.575 3.832.976 6.988 2.289 9.467 3.94l-3.494 6.417c-2.629-1.802-5.447-3.077-8.453-3.828a33.91 33.91 0 0 0-9.017-1.238c-5.334 0-9.279.938-11.834 2.814-2.48 1.801-3.72 4.128-3.72 6.98 0 2.25.677 4.014 2.029 5.29 1.428 1.276 3.269 2.29 5.523 3.04 2.329.675 4.846 1.238 7.552 1.688 2.78.45 5.522 1.013 8.227 1.689 2.78.6 5.298 1.463 7.552 2.589 2.329 1.05 4.17 2.589 5.523 4.615 1.427 1.951 2.141 4.54 2.141 7.768 0 3.452-.977 6.454-2.93 9.005-1.879 2.477-4.659 4.428-8.341 5.854-3.606 1.351-8.002 2.026-13.187 2.026z" fill="#fff"/>
        <mask id="omej8xd4rb" style="mask-type:luminance" maskUnits="userSpaceOnUse" x="557" y="24" width="441" height="89">
            <path d="M997.174 24.366H557.607v88.18h439.567v-88.18z" fill="#fff" stroke="#fff" stroke-width=".247"/>
            <path d="M559.486 109.769v-78.8h6.875l36.067 61.464h-3.607L634.55 30.97h6.876v78.799h-8.003V43.465h1.916L602.428 99.75h-3.945l-33.136-56.285h2.141v66.304h-8.002zM702.523 109.769V96.711l-.338-2.139V72.734c0-5.028-1.428-8.893-4.283-11.595-2.78-2.702-6.951-4.053-12.511-4.053-3.832 0-7.476.638-10.933 1.914-3.456 1.276-6.387 2.964-8.791 5.066l-3.607-5.967c3.006-2.551 6.612-4.502 10.82-5.853 4.208-1.426 8.641-2.139 13.3-2.139 7.664 0 13.563 1.914 17.695 5.741 4.208 3.752 6.312 9.493 6.312 17.223v36.698h-7.664zm-20.401.563c-4.433 0-8.303-.713-11.609-2.139-3.231-1.501-5.71-3.527-7.439-6.079-1.728-2.626-2.592-5.628-2.592-9.005 0-3.077.714-5.854 2.142-8.33 1.502-2.552 3.907-4.578 7.213-6.08 3.381-1.575 7.89-2.363 13.525-2.363h20.401v5.966h-20.175c-5.711 0-9.693 1.013-11.948 3.04-2.179 2.026-3.268 4.54-3.268 7.542 0 3.377 1.315 6.079 3.945 8.105 2.63 2.026 6.311 3.039 11.045 3.039 4.509 0 8.378-1.013 11.609-3.039 3.306-2.102 5.711-5.104 7.214-9.006l1.803 5.516c-1.503 3.902-4.133 7.017-7.89 9.343-3.681 2.327-8.34 3.49-13.976 3.49zM731.922 109.769v-59.1h7.664v16.098l-.789-2.814c1.653-4.503 4.433-7.917 8.341-10.244 3.907-2.401 8.753-3.602 14.539-3.602v7.767h-.902a3.702 3.702 0 0 0-.901-.112c-6.237 0-11.121 1.913-14.652 5.74-3.532 3.753-5.298 9.119-5.298 16.098v30.169h-8.002zM782.593 94.46l.225-10.244 36.856-33.546h9.806l-26.036 24.878-4.508 3.828-16.343 15.084zm-6.312 15.31V26.243h8.002v83.527h-8.002zm45.873 0L797.47 79.038l5.185-6.191 29.305 36.923h-9.806zM866.794 110.332c-6.161 0-11.571-1.276-16.23-3.827-4.658-2.627-8.303-6.192-10.933-10.694-2.63-4.578-3.944-9.794-3.944-15.648 0-5.853 1.239-11.032 3.719-15.534 2.555-4.503 6.011-8.03 10.369-10.582 4.433-2.627 9.393-3.94 14.878-3.94 5.56 0 10.482 1.276 14.765 3.827 4.358 2.477 7.777 6.004 10.256 10.582 2.48 4.503 3.72 9.719 3.72 15.647 0 .376-.038.788-.113 1.239v1.238h-51.508v-5.966h47.225l-3.156 2.363c0-4.277-.939-8.067-2.817-11.369-1.804-3.377-4.283-6.004-7.439-7.88-3.156-1.876-6.8-2.814-10.933-2.814-4.058 0-7.702.938-10.933 2.814-3.231 1.876-5.748 4.503-7.551 7.88-1.804 3.377-2.705 7.242-2.705 11.595V80.5c0 4.503.976 8.48 2.93 11.932 2.029 3.377 4.809 6.042 8.34 7.993 3.607 1.876 7.702 2.814 12.286 2.814 3.607 0 6.95-.638 10.031-1.914 3.156-1.275 5.861-3.227 8.115-5.853l4.508 5.178c-2.629 3.152-5.936 5.553-9.918 7.204-3.907 1.652-8.228 2.477-12.962 2.477zM928.391 110.332c-5.56 0-9.843-1.501-12.848-4.503-3.006-3.002-4.509-7.242-4.509-12.72V37.612h8.003v55.046c0 3.452.864 6.117 2.592 7.993 1.803 1.876 4.358 2.814 7.664 2.814 3.532 0 6.462-1.013 8.791-3.039l2.818 5.741c-1.578 1.426-3.494 2.476-5.748 3.152a22.723 22.723 0 0 1-6.763 1.013zm-27.952-53.02V50.67h36.631v6.641h-36.631zM971.362 110.332c-4.884 0-9.505-.675-13.863-2.026-4.358-1.426-7.777-3.19-10.257-5.291l3.607-6.304c2.404 1.801 5.485 3.377 9.242 4.728 3.757 1.276 7.702 1.914 11.835 1.914 5.635 0 9.693-.863 12.172-2.589 2.48-1.801 3.72-4.165 3.72-7.092 0-2.177-.714-3.865-2.142-5.066-1.352-1.276-3.156-2.214-5.41-2.814-2.254-.676-4.771-1.239-7.552-1.689-2.78-.45-5.56-.975-8.34-1.576-2.705-.6-5.185-1.463-7.439-2.589-2.254-1.2-4.095-2.814-5.523-4.84-1.352-2.027-2.028-4.728-2.028-8.105 0-3.227.901-6.117 2.705-8.668 1.803-2.552 4.433-4.54 7.889-5.967 3.532-1.5 7.815-2.251 12.849-2.251 3.832 0 7.665.525 11.497 1.576 3.832.976 6.988 2.289 9.467 3.94l-3.494 6.416c-2.63-1.8-5.447-3.077-8.453-3.827a33.915 33.915 0 0 0-9.017-1.238c-5.335 0-9.279.938-11.834 2.814-2.48 1.801-3.72 4.128-3.72 6.98 0 2.25.677 4.014 2.029 5.29 1.428 1.276 3.269 2.29 5.523 3.04 2.329.675 4.846 1.238 7.551 1.688a99.784 99.784 0 0 1 8.228 1.689c2.78.6 5.298 1.463 7.552 2.589 2.329 1.05 4.17 2.589 5.523 4.615 1.427 1.951 2.141 4.54 2.141 7.767 0 3.453-.977 6.454-2.93 9.006-1.879 2.477-4.659 4.428-8.341 5.854-3.607 1.351-8.002 2.026-13.187 2.026z" stroke="#fff" stroke-width=".247"/>
        </mask>
        <g mask="url(#omej8xd4rb)">
            <path d="M559.488 109.769V30.97h6.875l36.067 61.464h-3.607l35.729-61.464h6.876v78.799h-8.003V43.466h1.916L602.43 99.75h-3.945l-33.136-56.285h2.141v66.303h-8.002z" stroke="#fff" stroke-width=".247"/>
        </g>
        <mask id="5s0micjhdc" style="mask-type:luminance" maskUnits="userSpaceOnUse" x="557" y="24" width="441" height="89">
            <path d="M997.174 24.366H557.607v88.18h439.567v-88.18z" fill="#fff" stroke="#fff" stroke-width=".247"/>
            <path d="M559.486 109.769v-78.8h6.875l36.067 61.464h-3.607L634.55 30.97h6.876v78.799h-8.003V43.465h1.916L602.428 99.75h-3.945l-33.136-56.285h2.141v66.304h-8.002zM702.523 109.769V96.711l-.338-2.139V72.734c0-5.028-1.428-8.893-4.283-11.595-2.78-2.702-6.951-4.053-12.511-4.053-3.832 0-7.476.638-10.933 1.914-3.456 1.276-6.387 2.964-8.791 5.066l-3.607-5.967c3.006-2.551 6.612-4.502 10.82-5.853 4.208-1.426 8.641-2.139 13.3-2.139 7.664 0 13.563 1.914 17.695 5.741 4.208 3.752 6.312 9.493 6.312 17.223v36.698h-7.664zm-20.401.563c-4.433 0-8.303-.713-11.609-2.139-3.231-1.501-5.71-3.527-7.439-6.079-1.728-2.626-2.592-5.628-2.592-9.005 0-3.077.714-5.854 2.142-8.33 1.502-2.552 3.907-4.578 7.213-6.08 3.381-1.575 7.89-2.363 13.525-2.363h20.401v5.966h-20.175c-5.711 0-9.693 1.013-11.948 3.04-2.179 2.026-3.268 4.54-3.268 7.542 0 3.377 1.315 6.079 3.945 8.105 2.63 2.026 6.311 3.039 11.045 3.039 4.509 0 8.378-1.013 11.609-3.039 3.306-2.102 5.711-5.104 7.214-9.006l1.803 5.516c-1.503 3.902-4.133 7.017-7.89 9.343-3.681 2.327-8.34 3.49-13.976 3.49zM731.922 109.769v-59.1h7.664v16.098l-.789-2.814c1.653-4.503 4.433-7.917 8.341-10.244 3.907-2.401 8.753-3.602 14.539-3.602v7.767h-.902a3.702 3.702 0 0 0-.901-.112c-6.237 0-11.121 1.913-14.652 5.74-3.532 3.753-5.298 9.119-5.298 16.098v30.169h-8.002zM782.593 94.46l.225-10.244 36.856-33.546h9.806l-26.036 24.878-4.508 3.828-16.343 15.084zm-6.312 15.31V26.243h8.002v83.527h-8.002zm45.873 0L797.47 79.038l5.185-6.191 29.305 36.923h-9.806zM866.794 110.332c-6.161 0-11.571-1.276-16.23-3.827-4.658-2.627-8.303-6.192-10.933-10.694-2.63-4.578-3.944-9.794-3.944-15.648 0-5.853 1.239-11.032 3.719-15.534 2.555-4.503 6.011-8.03 10.369-10.582 4.433-2.627 9.393-3.94 14.878-3.94 5.56 0 10.482 1.276 14.765 3.827 4.358 2.477 7.777 6.004 10.256 10.582 2.48 4.503 3.72 9.719 3.72 15.647 0 .376-.038.788-.113 1.239v1.238h-51.508v-5.966h47.225l-3.156 2.363c0-4.277-.939-8.067-2.817-11.369-1.804-3.377-4.283-6.004-7.439-7.88-3.156-1.876-6.8-2.814-10.933-2.814-4.058 0-7.702.938-10.933 2.814-3.231 1.876-5.748 4.503-7.551 7.88-1.804 3.377-2.705 7.242-2.705 11.595V80.5c0 4.503.976 8.48 2.93 11.932 2.029 3.377 4.809 6.042 8.34 7.993 3.607 1.876 7.702 2.814 12.286 2.814 3.607 0 6.95-.638 10.031-1.914 3.156-1.275 5.861-3.227 8.115-5.853l4.508 5.178c-2.629 3.152-5.936 5.553-9.918 7.204-3.907 1.652-8.228 2.477-12.962 2.477zM928.391 110.332c-5.56 0-9.843-1.501-12.848-4.503-3.006-3.002-4.509-7.242-4.509-12.72V37.612h8.003v55.046c0 3.452.864 6.117 2.592 7.993 1.803 1.876 4.358 2.814 7.664 2.814 3.532 0 6.462-1.013 8.791-3.039l2.818 5.741c-1.578 1.426-3.494 2.476-5.748 3.152a22.723 22.723 0 0 1-6.763 1.013zm-27.952-53.02V50.67h36.631v6.641h-36.631zM971.362 110.332c-4.884 0-9.505-.675-13.863-2.026-4.358-1.426-7.777-3.19-10.257-5.291l3.607-6.304c2.404 1.801 5.485 3.377 9.242 4.728 3.757 1.276 7.702 1.914 11.835 1.914 5.635 0 9.693-.863 12.172-2.589 2.48-1.801 3.72-4.165 3.72-7.092 0-2.177-.714-3.865-2.142-5.066-1.352-1.276-3.156-2.214-5.41-2.814-2.254-.676-4.771-1.239-7.552-1.689-2.78-.45-5.56-.975-8.34-1.576-2.705-.6-5.185-1.463-7.439-2.589-2.254-1.2-4.095-2.814-5.523-4.84-1.352-2.027-2.028-4.728-2.028-8.105 0-3.227.901-6.117 2.705-8.668 1.803-2.552 4.433-4.54 7.889-5.967 3.532-1.5 7.815-2.251 12.849-2.251 3.832 0 7.665.525 11.497 1.576 3.832.976 6.988 2.289 9.467 3.94l-3.494 6.416c-2.63-1.8-5.447-3.077-8.453-3.827a33.915 33.915 0 0 0-9.017-1.238c-5.335 0-9.279.938-11.834 2.814-2.48 1.801-3.72 4.128-3.72 6.98 0 2.25.677 4.014 2.029 5.29 1.428 1.276 3.269 2.29 5.523 3.04 2.329.675 4.846 1.238 7.551 1.688a99.784 99.784 0 0 1 8.228 1.689c2.78.6 5.298 1.463 7.552 2.589 2.329 1.05 4.17 2.589 5.523 4.615 1.427 1.951 2.141 4.54 2.141 7.767 0 3.453-.977 6.454-2.93 9.006-1.879 2.477-4.659 4.428-8.341 5.854-3.607 1.351-8.002 2.026-13.187 2.026z" stroke="#fff" stroke-width=".247"/>
        </mask>
        <g mask="url(#5s0micjhdc)">
            <path d="M702.525 109.77V96.712l-.338-2.14V72.735c0-5.028-1.428-8.893-4.283-11.594-2.78-2.702-6.951-4.053-12.511-4.053-3.832 0-7.476.638-10.933 1.914-3.456 1.275-6.387 2.964-8.791 5.065l-3.607-5.966c3.006-2.552 6.613-4.503 10.82-5.854 4.208-1.425 8.641-2.138 13.3-2.138 7.664 0 13.563 1.913 17.696 5.74 4.207 3.753 6.311 9.494 6.311 17.224v36.698h-7.664zm-20.4.563c-4.434 0-8.303-.713-11.609-2.139-3.231-1.501-5.711-3.527-7.439-6.079-1.729-2.627-2.593-5.628-2.593-9.006 0-3.077.714-5.853 2.142-8.33 1.503-2.551 3.907-4.578 7.213-6.079 3.382-1.576 7.89-2.364 13.525-2.364h20.401v5.967H683.59c-5.711 0-9.693 1.013-11.947 3.039-2.179 2.026-3.269 4.54-3.269 7.542 0 3.377 1.315 6.079 3.945 8.105 2.63 2.027 6.312 3.04 11.045 3.04 4.509 0 8.378-1.013 11.609-3.04 3.307-2.101 5.711-5.103 7.214-9.005l1.803 5.516c-1.503 3.902-4.132 7.016-7.889 9.343-3.682 2.326-8.341 3.49-13.976 3.49z" stroke="#fff" stroke-width=".247"/>
        </g>
        <mask id="mwkzy1j2cd" style="mask-type:luminance" maskUnits="userSpaceOnUse" x="557" y="24" width="441" height="89">
            <path d="M997.174 24.366H557.607v88.18h439.567v-88.18z" fill="#fff" stroke="#fff" stroke-width=".247"/>
            <path d="M559.486 109.769v-78.8h6.875l36.067 61.464h-3.607L634.55 30.97h6.876v78.799h-8.003V43.465h1.916L602.428 99.75h-3.945l-33.136-56.285h2.141v66.304h-8.002zM702.523 109.769V96.711l-.338-2.139V72.734c0-5.028-1.428-8.893-4.283-11.595-2.78-2.702-6.951-4.053-12.511-4.053-3.832 0-7.476.638-10.933 1.914-3.456 1.276-6.387 2.964-8.791 5.066l-3.607-5.967c3.006-2.551 6.612-4.502 10.82-5.853 4.208-1.426 8.641-2.139 13.3-2.139 7.664 0 13.563 1.914 17.695 5.741 4.208 3.752 6.312 9.493 6.312 17.223v36.698h-7.664zm-20.401.563c-4.433 0-8.303-.713-11.609-2.139-3.231-1.501-5.71-3.527-7.439-6.079-1.728-2.626-2.592-5.628-2.592-9.005 0-3.077.714-5.854 2.142-8.33 1.502-2.552 3.907-4.578 7.213-6.08 3.381-1.575 7.89-2.363 13.525-2.363h20.401v5.966h-20.175c-5.711 0-9.693 1.013-11.948 3.04-2.179 2.026-3.268 4.54-3.268 7.542 0 3.377 1.315 6.079 3.945 8.105 2.63 2.026 6.311 3.039 11.045 3.039 4.509 0 8.378-1.013 11.609-3.039 3.306-2.102 5.711-5.104 7.214-9.006l1.803 5.516c-1.503 3.902-4.133 7.017-7.89 9.343-3.681 2.327-8.34 3.49-13.976 3.49zM731.922 109.769v-59.1h7.664v16.098l-.789-2.814c1.653-4.503 4.433-7.917 8.341-10.244 3.907-2.401 8.753-3.602 14.539-3.602v7.767h-.902a3.702 3.702 0 0 0-.901-.112c-6.237 0-11.121 1.913-14.652 5.74-3.532 3.753-5.298 9.119-5.298 16.098v30.169h-8.002zM782.593 94.46l.225-10.244 36.856-33.546h9.806l-26.036 24.878-4.508 3.828-16.343 15.084zm-6.312 15.31V26.243h8.002v83.527h-8.002zm45.873 0L797.47 79.038l5.185-6.191 29.305 36.923h-9.806zM866.794 110.332c-6.161 0-11.571-1.276-16.23-3.827-4.658-2.627-8.303-6.192-10.933-10.694-2.63-4.578-3.944-9.794-3.944-15.648 0-5.853 1.239-11.032 3.719-15.534 2.555-4.503 6.011-8.03 10.369-10.582 4.433-2.627 9.393-3.94 14.878-3.94 5.56 0 10.482 1.276 14.765 3.827 4.358 2.477 7.777 6.004 10.256 10.582 2.48 4.503 3.72 9.719 3.72 15.647 0 .376-.038.788-.113 1.239v1.238h-51.508v-5.966h47.225l-3.156 2.363c0-4.277-.939-8.067-2.817-11.369-1.804-3.377-4.283-6.004-7.439-7.88-3.156-1.876-6.8-2.814-10.933-2.814-4.058 0-7.702.938-10.933 2.814-3.231 1.876-5.748 4.503-7.551 7.88-1.804 3.377-2.705 7.242-2.705 11.595V80.5c0 4.503.976 8.48 2.93 11.932 2.029 3.377 4.809 6.042 8.34 7.993 3.607 1.876 7.702 2.814 12.286 2.814 3.607 0 6.95-.638 10.031-1.914 3.156-1.275 5.861-3.227 8.115-5.853l4.508 5.178c-2.629 3.152-5.936 5.553-9.918 7.204-3.907 1.652-8.228 2.477-12.962 2.477zM928.391 110.332c-5.56 0-9.843-1.501-12.848-4.503-3.006-3.002-4.509-7.242-4.509-12.72V37.612h8.003v55.046c0 3.452.864 6.117 2.592 7.993 1.803 1.876 4.358 2.814 7.664 2.814 3.532 0 6.462-1.013 8.791-3.039l2.818 5.741c-1.578 1.426-3.494 2.476-5.748 3.152a22.723 22.723 0 0 1-6.763 1.013zm-27.952-53.02V50.67h36.631v6.641h-36.631zM971.362 110.332c-4.884 0-9.505-.675-13.863-2.026-4.358-1.426-7.777-3.19-10.257-5.291l3.607-6.304c2.404 1.801 5.485 3.377 9.242 4.728 3.757 1.276 7.702 1.914 11.835 1.914 5.635 0 9.693-.863 12.172-2.589 2.48-1.801 3.72-4.165 3.72-7.092 0-2.177-.714-3.865-2.142-5.066-1.352-1.276-3.156-2.214-5.41-2.814-2.254-.676-4.771-1.239-7.552-1.689-2.78-.45-5.56-.975-8.34-1.576-2.705-.6-5.185-1.463-7.439-2.589-2.254-1.2-4.095-2.814-5.523-4.84-1.352-2.027-2.028-4.728-2.028-8.105 0-3.227.901-6.117 2.705-8.668 1.803-2.552 4.433-4.54 7.889-5.967 3.532-1.5 7.815-2.251 12.849-2.251 3.832 0 7.665.525 11.497 1.576 3.832.976 6.988 2.289 9.467 3.94l-3.494 6.416c-2.63-1.8-5.447-3.077-8.453-3.827a33.915 33.915 0 0 0-9.017-1.238c-5.335 0-9.279.938-11.834 2.814-2.48 1.801-3.72 4.128-3.72 6.98 0 2.25.677 4.014 2.029 5.29 1.428 1.276 3.269 2.29 5.523 3.04 2.329.675 4.846 1.238 7.551 1.688a99.784 99.784 0 0 1 8.228 1.689c2.78.6 5.298 1.463 7.552 2.589 2.329 1.05 4.17 2.589 5.523 4.615 1.427 1.951 2.141 4.54 2.141 7.767 0 3.453-.977 6.454-2.93 9.006-1.879 2.477-4.659 4.428-8.341 5.854-3.607 1.351-8.002 2.026-13.187 2.026z" stroke="#fff" stroke-width=".247"/>
        </mask>
        <g mask="url(#mwkzy1j2cd)">
            <path d="M731.924 109.77v-59.1h7.664v16.098l-.789-2.814c1.653-4.503 4.433-7.918 8.341-10.244 3.907-2.402 8.753-3.602 14.539-3.602v7.767h-.902a3.707 3.707 0 0 0-.901-.113c-6.237 0-11.121 1.914-14.652 5.741-3.532 3.753-5.298 9.119-5.298 16.098v30.169h-8.002z" stroke="#fff" stroke-width=".247"/>
        </g>
        <mask id="3n2gaszd4e" style="mask-type:luminance" maskUnits="userSpaceOnUse" x="557" y="24" width="441" height="89">
            <path d="M997.174 24.366H557.607v88.18h439.567v-88.18z" fill="#fff" stroke="#fff" stroke-width=".247"/>
            <path d="M559.486 109.769v-78.8h6.875l36.067 61.464h-3.607L634.55 30.97h6.876v78.799h-8.003V43.465h1.916L602.428 99.75h-3.945l-33.136-56.285h2.141v66.304h-8.002zM702.523 109.769V96.711l-.338-2.139V72.734c0-5.028-1.428-8.893-4.283-11.595-2.78-2.702-6.951-4.053-12.511-4.053-3.832 0-7.476.638-10.933 1.914-3.456 1.276-6.387 2.964-8.791 5.066l-3.607-5.967c3.006-2.551 6.612-4.502 10.82-5.853 4.208-1.426 8.641-2.139 13.3-2.139 7.664 0 13.563 1.914 17.695 5.741 4.208 3.752 6.312 9.493 6.312 17.223v36.698h-7.664zm-20.401.563c-4.433 0-8.303-.713-11.609-2.139-3.231-1.501-5.71-3.527-7.439-6.079-1.728-2.626-2.592-5.628-2.592-9.005 0-3.077.714-5.854 2.142-8.33 1.502-2.552 3.907-4.578 7.213-6.08 3.381-1.575 7.89-2.363 13.525-2.363h20.401v5.966h-20.175c-5.711 0-9.693 1.013-11.948 3.04-2.179 2.026-3.268 4.54-3.268 7.542 0 3.377 1.315 6.079 3.945 8.105 2.63 2.026 6.311 3.039 11.045 3.039 4.509 0 8.378-1.013 11.609-3.039 3.306-2.102 5.711-5.104 7.214-9.006l1.803 5.516c-1.503 3.902-4.133 7.017-7.89 9.343-3.681 2.327-8.34 3.49-13.976 3.49zM731.922 109.769v-59.1h7.664v16.098l-.789-2.814c1.653-4.503 4.433-7.917 8.341-10.244 3.907-2.401 8.753-3.602 14.539-3.602v7.767h-.902a3.702 3.702 0 0 0-.901-.112c-6.237 0-11.121 1.913-14.652 5.74-3.532 3.753-5.298 9.119-5.298 16.098v30.169h-8.002zM782.593 94.46l.225-10.244 36.856-33.546h9.806l-26.036 24.878-4.508 3.828-16.343 15.084zm-6.312 15.31V26.243h8.002v83.527h-8.002zm45.873 0L797.47 79.038l5.185-6.191 29.305 36.923h-9.806zM866.794 110.332c-6.161 0-11.571-1.276-16.23-3.827-4.658-2.627-8.303-6.192-10.933-10.694-2.63-4.578-3.944-9.794-3.944-15.648 0-5.853 1.239-11.032 3.719-15.534 2.555-4.503 6.011-8.03 10.369-10.582 4.433-2.627 9.393-3.94 14.878-3.94 5.56 0 10.482 1.276 14.765 3.827 4.358 2.477 7.777 6.004 10.256 10.582 2.48 4.503 3.72 9.719 3.72 15.647 0 .376-.038.788-.113 1.239v1.238h-51.508v-5.966h47.225l-3.156 2.363c0-4.277-.939-8.067-2.817-11.369-1.804-3.377-4.283-6.004-7.439-7.88-3.156-1.876-6.8-2.814-10.933-2.814-4.058 0-7.702.938-10.933 2.814-3.231 1.876-5.748 4.503-7.551 7.88-1.804 3.377-2.705 7.242-2.705 11.595V80.5c0 4.503.976 8.48 2.93 11.932 2.029 3.377 4.809 6.042 8.34 7.993 3.607 1.876 7.702 2.814 12.286 2.814 3.607 0 6.95-.638 10.031-1.914 3.156-1.275 5.861-3.227 8.115-5.853l4.508 5.178c-2.629 3.152-5.936 5.553-9.918 7.204-3.907 1.652-8.228 2.477-12.962 2.477zM928.391 110.332c-5.56 0-9.843-1.501-12.848-4.503-3.006-3.002-4.509-7.242-4.509-12.72V37.612h8.003v55.046c0 3.452.864 6.117 2.592 7.993 1.803 1.876 4.358 2.814 7.664 2.814 3.532 0 6.462-1.013 8.791-3.039l2.818 5.741c-1.578 1.426-3.494 2.476-5.748 3.152a22.723 22.723 0 0 1-6.763 1.013zm-27.952-53.02V50.67h36.631v6.641h-36.631zM971.362 110.332c-4.884 0-9.505-.675-13.863-2.026-4.358-1.426-7.777-3.19-10.257-5.291l3.607-6.304c2.404 1.801 5.485 3.377 9.242 4.728 3.757 1.276 7.702 1.914 11.835 1.914 5.635 0 9.693-.863 12.172-2.589 2.48-1.801 3.72-4.165 3.72-7.092 0-2.177-.714-3.865-2.142-5.066-1.352-1.276-3.156-2.214-5.41-2.814-2.254-.676-4.771-1.239-7.552-1.689-2.78-.45-5.56-.975-8.34-1.576-2.705-.6-5.185-1.463-7.439-2.589-2.254-1.2-4.095-2.814-5.523-4.84-1.352-2.027-2.028-4.728-2.028-8.105 0-3.227.901-6.117 2.705-8.668 1.803-2.552 4.433-4.54 7.889-5.967 3.532-1.5 7.815-2.251 12.849-2.251 3.832 0 7.665.525 11.497 1.576 3.832.976 6.988 2.289 9.467 3.94l-3.494 6.416c-2.63-1.8-5.447-3.077-8.453-3.827a33.915 33.915 0 0 0-9.017-1.238c-5.335 0-9.279.938-11.834 2.814-2.48 1.801-3.72 4.128-3.72 6.98 0 2.25.677 4.014 2.029 5.29 1.428 1.276 3.269 2.29 5.523 3.04 2.329.675 4.846 1.238 7.551 1.688a99.784 99.784 0 0 1 8.228 1.689c2.78.6 5.298 1.463 7.552 2.589 2.329 1.05 4.17 2.589 5.523 4.615 1.427 1.951 2.141 4.54 2.141 7.767 0 3.453-.977 6.454-2.93 9.006-1.879 2.477-4.659 4.428-8.341 5.854-3.607 1.351-8.002 2.026-13.187 2.026z" stroke="#fff" stroke-width=".247"/>
        </mask>
        <g mask="url(#3n2gaszd4e)">
            <path d="m782.595 94.46.225-10.243 36.856-33.546h9.806l-26.036 24.878-4.508 3.827-16.343 15.085zm-6.312 15.31V26.243h8.002v83.527h-8.002zm45.873 0-24.684-30.731 5.185-6.192 29.304 36.923h-9.805z" stroke="#fff" stroke-width=".247"/>
        </g>
        <mask id="sgq4k4vabf" style="mask-type:luminance" maskUnits="userSpaceOnUse" x="557" y="24" width="441" height="89">
            <path d="M997.174 24.366H557.607v88.18h439.567v-88.18z" fill="#fff" stroke="#fff" stroke-width=".247"/>
            <path d="M559.486 109.769v-78.8h6.875l36.067 61.464h-3.607L634.55 30.97h6.876v78.799h-8.003V43.465h1.916L602.428 99.75h-3.945l-33.136-56.285h2.141v66.304h-8.002zM702.523 109.769V96.711l-.338-2.139V72.734c0-5.028-1.428-8.893-4.283-11.595-2.78-2.702-6.951-4.053-12.511-4.053-3.832 0-7.476.638-10.933 1.914-3.456 1.276-6.387 2.964-8.791 5.066l-3.607-5.967c3.006-2.551 6.612-4.502 10.82-5.853 4.208-1.426 8.641-2.139 13.3-2.139 7.664 0 13.563 1.914 17.695 5.741 4.208 3.752 6.312 9.493 6.312 17.223v36.698h-7.664zm-20.401.563c-4.433 0-8.303-.713-11.609-2.139-3.231-1.501-5.71-3.527-7.439-6.079-1.728-2.626-2.592-5.628-2.592-9.005 0-3.077.714-5.854 2.142-8.33 1.502-2.552 3.907-4.578 7.213-6.08 3.381-1.575 7.89-2.363 13.525-2.363h20.401v5.966h-20.175c-5.711 0-9.693 1.013-11.948 3.04-2.179 2.026-3.268 4.54-3.268 7.542 0 3.377 1.315 6.079 3.945 8.105 2.63 2.026 6.311 3.039 11.045 3.039 4.509 0 8.378-1.013 11.609-3.039 3.306-2.102 5.711-5.104 7.214-9.006l1.803 5.516c-1.503 3.902-4.133 7.017-7.89 9.343-3.681 2.327-8.34 3.49-13.976 3.49zM731.922 109.769v-59.1h7.664v16.098l-.789-2.814c1.653-4.503 4.433-7.917 8.341-10.244 3.907-2.401 8.753-3.602 14.539-3.602v7.767h-.902a3.702 3.702 0 0 0-.901-.112c-6.237 0-11.121 1.913-14.652 5.74-3.532 3.753-5.298 9.119-5.298 16.098v30.169h-8.002zM782.593 94.46l.225-10.244 36.856-33.546h9.806l-26.036 24.878-4.508 3.828-16.343 15.084zm-6.312 15.31V26.243h8.002v83.527h-8.002zm45.873 0L797.47 79.038l5.185-6.191 29.305 36.923h-9.806zM866.794 110.332c-6.161 0-11.571-1.276-16.23-3.827-4.658-2.627-8.303-6.192-10.933-10.694-2.63-4.578-3.944-9.794-3.944-15.648 0-5.853 1.239-11.032 3.719-15.534 2.555-4.503 6.011-8.03 10.369-10.582 4.433-2.627 9.393-3.94 14.878-3.94 5.56 0 10.482 1.276 14.765 3.827 4.358 2.477 7.777 6.004 10.256 10.582 2.48 4.503 3.72 9.719 3.72 15.647 0 .376-.038.788-.113 1.239v1.238h-51.508v-5.966h47.225l-3.156 2.363c0-4.277-.939-8.067-2.817-11.369-1.804-3.377-4.283-6.004-7.439-7.88-3.156-1.876-6.8-2.814-10.933-2.814-4.058 0-7.702.938-10.933 2.814-3.231 1.876-5.748 4.503-7.551 7.88-1.804 3.377-2.705 7.242-2.705 11.595V80.5c0 4.503.976 8.48 2.93 11.932 2.029 3.377 4.809 6.042 8.34 7.993 3.607 1.876 7.702 2.814 12.286 2.814 3.607 0 6.95-.638 10.031-1.914 3.156-1.275 5.861-3.227 8.115-5.853l4.508 5.178c-2.629 3.152-5.936 5.553-9.918 7.204-3.907 1.652-8.228 2.477-12.962 2.477zM928.391 110.332c-5.56 0-9.843-1.501-12.848-4.503-3.006-3.002-4.509-7.242-4.509-12.72V37.612h8.003v55.046c0 3.452.864 6.117 2.592 7.993 1.803 1.876 4.358 2.814 7.664 2.814 3.532 0 6.462-1.013 8.791-3.039l2.818 5.741c-1.578 1.426-3.494 2.476-5.748 3.152a22.723 22.723 0 0 1-6.763 1.013zm-27.952-53.02V50.67h36.631v6.641h-36.631zM971.362 110.332c-4.884 0-9.505-.675-13.863-2.026-4.358-1.426-7.777-3.19-10.257-5.291l3.607-6.304c2.404 1.801 5.485 3.377 9.242 4.728 3.757 1.276 7.702 1.914 11.835 1.914 5.635 0 9.693-.863 12.172-2.589 2.48-1.801 3.72-4.165 3.72-7.092 0-2.177-.714-3.865-2.142-5.066-1.352-1.276-3.156-2.214-5.41-2.814-2.254-.676-4.771-1.239-7.552-1.689-2.78-.45-5.56-.975-8.34-1.576-2.705-.6-5.185-1.463-7.439-2.589-2.254-1.2-4.095-2.814-5.523-4.84-1.352-2.027-2.028-4.728-2.028-8.105 0-3.227.901-6.117 2.705-8.668 1.803-2.552 4.433-4.54 7.889-5.967 3.532-1.5 7.815-2.251 12.849-2.251 3.832 0 7.665.525 11.497 1.576 3.832.976 6.988 2.289 9.467 3.94l-3.494 6.416c-2.63-1.8-5.447-3.077-8.453-3.827a33.915 33.915 0 0 0-9.017-1.238c-5.335 0-9.279.938-11.834 2.814-2.48 1.801-3.72 4.128-3.72 6.98 0 2.25.677 4.014 2.029 5.29 1.428 1.276 3.269 2.29 5.523 3.04 2.329.675 4.846 1.238 7.551 1.688a99.784 99.784 0 0 1 8.228 1.689c2.78.6 5.298 1.463 7.552 2.589 2.329 1.05 4.17 2.589 5.523 4.615 1.427 1.951 2.141 4.54 2.141 7.767 0 3.453-.977 6.454-2.93 9.006-1.879 2.477-4.659 4.428-8.341 5.854-3.607 1.351-8.002 2.026-13.187 2.026z" stroke="#fff" stroke-width=".247"/>
        </mask>
        <g mask="url(#sgq4k4vabf)">
            <path d="M866.796 110.333c-6.161 0-11.571-1.276-16.23-3.828-4.659-2.626-8.303-6.191-10.933-10.694-2.63-4.578-3.945-9.794-3.945-15.647 0-5.854 1.24-11.032 3.72-15.535 2.555-4.503 6.011-8.03 10.369-10.582 4.433-2.626 9.393-3.94 14.878-3.94 5.56 0 10.482 1.276 14.765 3.828 4.358 2.476 7.777 6.004 10.256 10.582 2.48 4.502 3.72 9.718 3.72 15.647 0 .375-.038.788-.113 1.238v1.238h-51.508v-5.966H889l-3.156 2.364c0-4.278-.939-8.067-2.818-11.37-1.803-3.377-4.282-6.003-7.438-7.88-3.156-1.876-6.8-2.814-10.933-2.814-4.058 0-7.702.938-10.933 2.815-3.231 1.876-5.748 4.502-7.552 7.88-1.803 3.377-2.705 7.242-2.705 11.594v1.238c0 4.503.977 8.48 2.931 11.933 2.029 3.377 4.809 6.041 8.34 7.992 3.607 1.877 7.702 2.815 12.286 2.815 3.606 0 6.95-.638 10.031-1.914 3.156-1.276 5.861-3.227 8.115-5.854l4.508 5.179c-2.63 3.152-5.936 5.553-9.918 7.204-3.907 1.651-8.228 2.477-12.962 2.477z" stroke="#fff" stroke-width=".247"/>
        </g>
        <mask id="2s46w5oesg" style="mask-type:luminance" maskUnits="userSpaceOnUse" x="557" y="24" width="441" height="89">
            <path d="M997.174 24.366H557.607v88.18h439.567v-88.18z" fill="#fff" stroke="#fff" stroke-width=".247"/>
            <path d="M559.486 109.769v-78.8h6.875l36.067 61.464h-3.607L634.55 30.97h6.876v78.799h-8.003V43.465h1.916L602.428 99.75h-3.945l-33.136-56.285h2.141v66.304h-8.002zM702.523 109.769V96.711l-.338-2.139V72.734c0-5.028-1.428-8.893-4.283-11.595-2.78-2.702-6.951-4.053-12.511-4.053-3.832 0-7.476.638-10.933 1.914-3.456 1.276-6.387 2.964-8.791 5.066l-3.607-5.967c3.006-2.551 6.612-4.502 10.82-5.853 4.208-1.426 8.641-2.139 13.3-2.139 7.664 0 13.563 1.914 17.695 5.741 4.208 3.752 6.312 9.493 6.312 17.223v36.698h-7.664zm-20.401.563c-4.433 0-8.303-.713-11.609-2.139-3.231-1.501-5.71-3.527-7.439-6.079-1.728-2.626-2.592-5.628-2.592-9.005 0-3.077.714-5.854 2.142-8.33 1.502-2.552 3.907-4.578 7.213-6.08 3.381-1.575 7.89-2.363 13.525-2.363h20.401v5.966h-20.175c-5.711 0-9.693 1.013-11.948 3.04-2.179 2.026-3.268 4.54-3.268 7.542 0 3.377 1.315 6.079 3.945 8.105 2.63 2.026 6.311 3.039 11.045 3.039 4.509 0 8.378-1.013 11.609-3.039 3.306-2.102 5.711-5.104 7.214-9.006l1.803 5.516c-1.503 3.902-4.133 7.017-7.89 9.343-3.681 2.327-8.34 3.49-13.976 3.49zM731.922 109.769v-59.1h7.664v16.098l-.789-2.814c1.653-4.503 4.433-7.917 8.341-10.244 3.907-2.401 8.753-3.602 14.539-3.602v7.767h-.902a3.702 3.702 0 0 0-.901-.112c-6.237 0-11.121 1.913-14.652 5.74-3.532 3.753-5.298 9.119-5.298 16.098v30.169h-8.002zM782.593 94.46l.225-10.244 36.856-33.546h9.806l-26.036 24.878-4.508 3.828-16.343 15.084zm-6.312 15.31V26.243h8.002v83.527h-8.002zm45.873 0L797.47 79.038l5.185-6.191 29.305 36.923h-9.806zM866.794 110.332c-6.161 0-11.571-1.276-16.23-3.827-4.658-2.627-8.303-6.192-10.933-10.694-2.63-4.578-3.944-9.794-3.944-15.648 0-5.853 1.239-11.032 3.719-15.534 2.555-4.503 6.011-8.03 10.369-10.582 4.433-2.627 9.393-3.94 14.878-3.94 5.56 0 10.482 1.276 14.765 3.827 4.358 2.477 7.777 6.004 10.256 10.582 2.48 4.503 3.72 9.719 3.72 15.647 0 .376-.038.788-.113 1.239v1.238h-51.508v-5.966h47.225l-3.156 2.363c0-4.277-.939-8.067-2.817-11.369-1.804-3.377-4.283-6.004-7.439-7.88-3.156-1.876-6.8-2.814-10.933-2.814-4.058 0-7.702.938-10.933 2.814-3.231 1.876-5.748 4.503-7.551 7.88-1.804 3.377-2.705 7.242-2.705 11.595V80.5c0 4.503.976 8.48 2.93 11.932 2.029 3.377 4.809 6.042 8.34 7.993 3.607 1.876 7.702 2.814 12.286 2.814 3.607 0 6.95-.638 10.031-1.914 3.156-1.275 5.861-3.227 8.115-5.853l4.508 5.178c-2.629 3.152-5.936 5.553-9.918 7.204-3.907 1.652-8.228 2.477-12.962 2.477zM928.391 110.332c-5.56 0-9.843-1.501-12.848-4.503-3.006-3.002-4.509-7.242-4.509-12.72V37.612h8.003v55.046c0 3.452.864 6.117 2.592 7.993 1.803 1.876 4.358 2.814 7.664 2.814 3.532 0 6.462-1.013 8.791-3.039l2.818 5.741c-1.578 1.426-3.494 2.476-5.748 3.152a22.723 22.723 0 0 1-6.763 1.013zm-27.952-53.02V50.67h36.631v6.641h-36.631zM971.362 110.332c-4.884 0-9.505-.675-13.863-2.026-4.358-1.426-7.777-3.19-10.257-5.291l3.607-6.304c2.404 1.801 5.485 3.377 9.242 4.728 3.757 1.276 7.702 1.914 11.835 1.914 5.635 0 9.693-.863 12.172-2.589 2.48-1.801 3.72-4.165 3.72-7.092 0-2.177-.714-3.865-2.142-5.066-1.352-1.276-3.156-2.214-5.41-2.814-2.254-.676-4.771-1.239-7.552-1.689-2.78-.45-5.56-.975-8.34-1.576-2.705-.6-5.185-1.463-7.439-2.589-2.254-1.2-4.095-2.814-5.523-4.84-1.352-2.027-2.028-4.728-2.028-8.105 0-3.227.901-6.117 2.705-8.668 1.803-2.552 4.433-4.54 7.889-5.967 3.532-1.5 7.815-2.251 12.849-2.251 3.832 0 7.665.525 11.497 1.576 3.832.976 6.988 2.289 9.467 3.94l-3.494 6.416c-2.63-1.8-5.447-3.077-8.453-3.827a33.915 33.915 0 0 0-9.017-1.238c-5.335 0-9.279.938-11.834 2.814-2.48 1.801-3.72 4.128-3.72 6.98 0 2.25.677 4.014 2.029 5.29 1.428 1.276 3.269 2.29 5.523 3.04 2.329.675 4.846 1.238 7.551 1.688a99.784 99.784 0 0 1 8.228 1.689c2.78.6 5.298 1.463 7.552 2.589 2.329 1.05 4.17 2.589 5.523 4.615 1.427 1.951 2.141 4.54 2.141 7.767 0 3.453-.977 6.454-2.93 9.006-1.879 2.477-4.659 4.428-8.341 5.854-3.607 1.351-8.002 2.026-13.187 2.026z" stroke="#fff" stroke-width=".247"/>
        </mask>
        <g mask="url(#2s46w5oesg)">
            <path d="M928.393 110.332c-5.56 0-9.843-1.501-12.849-4.503-3.005-3.001-4.508-7.241-4.508-12.72V37.612h8.002v55.047c0 3.452.865 6.116 2.593 7.992 1.803 1.876 4.358 2.815 7.664 2.815 3.532 0 6.462-1.014 8.791-3.04l2.818 5.741c-1.578 1.426-3.494 2.477-5.748 3.152a22.69 22.69 0 0 1-6.763 1.013zm-27.952-53.02V50.67h36.631v6.642h-36.631z" stroke="#fff" stroke-width=".247"/>
        </g>
        <mask id="46b72exokh" style="mask-type:luminance" maskUnits="userSpaceOnUse" x="557" y="24" width="441" height="89">
            <path d="M997.174 24.366H557.607v88.18h439.567v-88.18z" fill="#fff" stroke="#fff" stroke-width=".247"/>
            <path d="M559.486 109.769v-78.8h6.875l36.067 61.464h-3.607L634.55 30.97h6.876v78.799h-8.003V43.465h1.916L602.428 99.75h-3.945l-33.136-56.285h2.141v66.304h-8.002zM702.523 109.769V96.711l-.338-2.139V72.734c0-5.028-1.428-8.893-4.283-11.595-2.78-2.702-6.951-4.053-12.511-4.053-3.832 0-7.476.638-10.933 1.914-3.456 1.276-6.387 2.964-8.791 5.066l-3.607-5.967c3.006-2.551 6.612-4.502 10.82-5.853 4.208-1.426 8.641-2.139 13.3-2.139 7.664 0 13.563 1.914 17.695 5.741 4.208 3.752 6.312 9.493 6.312 17.223v36.698h-7.664zm-20.401.563c-4.433 0-8.303-.713-11.609-2.139-3.231-1.501-5.71-3.527-7.439-6.079-1.728-2.626-2.592-5.628-2.592-9.005 0-3.077.714-5.854 2.142-8.33 1.502-2.552 3.907-4.578 7.213-6.08 3.381-1.575 7.89-2.363 13.525-2.363h20.401v5.966h-20.175c-5.711 0-9.693 1.013-11.948 3.04-2.179 2.026-3.268 4.54-3.268 7.542 0 3.377 1.315 6.079 3.945 8.105 2.63 2.026 6.311 3.039 11.045 3.039 4.509 0 8.378-1.013 11.609-3.039 3.306-2.102 5.711-5.104 7.214-9.006l1.803 5.516c-1.503 3.902-4.133 7.017-7.89 9.343-3.681 2.327-8.34 3.49-13.976 3.49zM731.922 109.769v-59.1h7.664v16.098l-.789-2.814c1.653-4.503 4.433-7.917 8.341-10.244 3.907-2.401 8.753-3.602 14.539-3.602v7.767h-.902a3.702 3.702 0 0 0-.901-.112c-6.237 0-11.121 1.913-14.652 5.74-3.532 3.753-5.298 9.119-5.298 16.098v30.169h-8.002zM782.593 94.46l.225-10.244 36.856-33.546h9.806l-26.036 24.878-4.508 3.828-16.343 15.084zm-6.312 15.31V26.243h8.002v83.527h-8.002zm45.873 0L797.47 79.038l5.185-6.191 29.305 36.923h-9.806zM866.794 110.332c-6.161 0-11.571-1.276-16.23-3.827-4.658-2.627-8.303-6.192-10.933-10.694-2.63-4.578-3.944-9.794-3.944-15.648 0-5.853 1.239-11.032 3.719-15.534 2.555-4.503 6.011-8.03 10.369-10.582 4.433-2.627 9.393-3.94 14.878-3.94 5.56 0 10.482 1.276 14.765 3.827 4.358 2.477 7.777 6.004 10.256 10.582 2.48 4.503 3.72 9.719 3.72 15.647 0 .376-.038.788-.113 1.239v1.238h-51.508v-5.966h47.225l-3.156 2.363c0-4.277-.939-8.067-2.817-11.369-1.804-3.377-4.283-6.004-7.439-7.88-3.156-1.876-6.8-2.814-10.933-2.814-4.058 0-7.702.938-10.933 2.814-3.231 1.876-5.748 4.503-7.551 7.88-1.804 3.377-2.705 7.242-2.705 11.595V80.5c0 4.503.976 8.48 2.93 11.932 2.029 3.377 4.809 6.042 8.34 7.993 3.607 1.876 7.702 2.814 12.286 2.814 3.607 0 6.95-.638 10.031-1.914 3.156-1.275 5.861-3.227 8.115-5.853l4.508 5.178c-2.629 3.152-5.936 5.553-9.918 7.204-3.907 1.652-8.228 2.477-12.962 2.477zM928.391 110.332c-5.56 0-9.843-1.501-12.848-4.503-3.006-3.002-4.509-7.242-4.509-12.72V37.612h8.003v55.046c0 3.452.864 6.117 2.592 7.993 1.803 1.876 4.358 2.814 7.664 2.814 3.532 0 6.462-1.013 8.791-3.039l2.818 5.741c-1.578 1.426-3.494 2.476-5.748 3.152a22.723 22.723 0 0 1-6.763 1.013zm-27.952-53.02V50.67h36.631v6.641h-36.631zM971.362 110.332c-4.884 0-9.505-.675-13.863-2.026-4.358-1.426-7.777-3.19-10.257-5.291l3.607-6.304c2.404 1.801 5.485 3.377 9.242 4.728 3.757 1.276 7.702 1.914 11.835 1.914 5.635 0 9.693-.863 12.172-2.589 2.48-1.801 3.72-4.165 3.72-7.092 0-2.177-.714-3.865-2.142-5.066-1.352-1.276-3.156-2.214-5.41-2.814-2.254-.676-4.771-1.239-7.552-1.689-2.78-.45-5.56-.975-8.34-1.576-2.705-.6-5.185-1.463-7.439-2.589-2.254-1.2-4.095-2.814-5.523-4.84-1.352-2.027-2.028-4.728-2.028-8.105 0-3.227.901-6.117 2.705-8.668 1.803-2.552 4.433-4.54 7.889-5.967 3.532-1.5 7.815-2.251 12.849-2.251 3.832 0 7.665.525 11.497 1.576 3.832.976 6.988 2.289 9.467 3.94l-3.494 6.416c-2.63-1.8-5.447-3.077-8.453-3.827a33.915 33.915 0 0 0-9.017-1.238c-5.335 0-9.279.938-11.834 2.814-2.48 1.801-3.72 4.128-3.72 6.98 0 2.25.677 4.014 2.029 5.29 1.428 1.276 3.269 2.29 5.523 3.04 2.329.675 4.846 1.238 7.551 1.688a99.784 99.784 0 0 1 8.228 1.689c2.78.6 5.298 1.463 7.552 2.589 2.329 1.05 4.17 2.589 5.523 4.615 1.427 1.951 2.141 4.54 2.141 7.767 0 3.453-.977 6.454-2.93 9.006-1.879 2.477-4.659 4.428-8.341 5.854-3.607 1.351-8.002 2.026-13.187 2.026z" stroke="#fff" stroke-width=".247"/>
        </mask>
        <g mask="url(#46b72exokh)">
            <path d="M971.364 110.333c-4.884 0-9.505-.676-13.863-2.027-4.358-1.426-7.777-3.189-10.257-5.29l3.607-6.304c2.404 1.8 5.485 3.377 9.242 4.728 3.757 1.275 7.702 1.913 11.835 1.913 5.635 0 9.693-.863 12.172-2.589 2.48-1.801 3.72-4.165 3.72-7.092 0-2.176-.714-3.865-2.142-5.065-1.352-1.276-3.156-2.214-5.41-2.815-2.254-.675-4.771-1.238-7.552-1.688-2.78-.45-5.56-.976-8.34-1.576-2.705-.6-5.185-1.464-7.439-2.59-2.254-1.2-4.095-2.814-5.523-4.84-1.352-2.026-2.028-4.728-2.028-8.105 0-3.227.901-6.116 2.705-8.668 1.803-2.551 4.433-4.54 7.889-5.966 3.532-1.501 7.815-2.251 12.849-2.251 3.832 0 7.665.525 11.497 1.576 3.832.975 6.988 2.288 9.467 3.94l-3.494 6.416c-2.63-1.801-5.447-3.077-8.453-3.827a33.915 33.915 0 0 0-9.017-1.239c-5.335 0-9.28.938-11.834 2.815-2.48 1.8-3.72 4.127-3.72 6.979 0 2.251.677 4.015 2.029 5.29 1.428 1.276 3.269 2.29 5.523 3.04 2.329.676 4.846 1.238 7.551 1.689a99.784 99.784 0 0 1 8.228 1.688c2.78.6 5.298 1.464 7.552 2.59 2.329 1.05 4.17 2.588 5.523 4.615 1.427 1.95 2.141 4.54 2.141 7.767 0 3.452-.977 6.454-2.93 9.006-1.879 2.476-4.659 4.427-8.341 5.853-3.607 1.351-8.002 2.027-13.187 2.027z" stroke="#fff" stroke-width=".247"/>
        </g>
        <path d="M1279.21 37.453h-174.2c-29.16 0-52.79 24.361-52.79 54.412s23.63 54.412 52.79 54.412h174.2c29.16 0 52.79-24.361 52.79-54.412 0-30.05-23.63-54.412-52.79-54.412z" fill="#fff"/>
        <path d="M1114 112.258h-13.12V73.953h13.38c3.85 0 7.15.767 9.91 2.3 2.77 1.522 4.9 3.71 6.4 6.566 1.48 2.855 2.23 6.271 2.23 10.249 0 3.99-.75 7.42-2.26 10.287-1.48 2.868-3.63 5.069-6.44 6.602-2.8 1.534-6.17 2.301-10.1 2.301zm-6.11-6.004h5.77c2.7 0 4.94-.486 6.75-1.459 1.8-.985 3.16-2.45 4.06-4.395.91-1.958 1.37-4.401 1.37-7.332 0-2.93-.46-5.362-1.37-7.294-.9-1.945-2.24-3.398-4.02-4.358-1.77-.973-3.96-1.459-6.58-1.459h-5.98v26.297zm44.13 6.565c-2.91 0-5.43-.598-7.55-1.796-2.1-1.209-3.72-2.917-4.86-5.124-1.13-2.22-1.7-4.832-1.7-7.837 0-2.955.57-5.549 1.7-7.78 1.15-2.245 2.75-3.991 4.81-5.238 2.05-1.259 4.46-1.889 7.24-1.889 1.79 0 3.48.287 5.07.86 1.6.562 3.01 1.434 4.23 2.619 1.24 1.184 2.21 2.693 2.91 4.526.71 1.821 1.06 3.99 1.06 6.51v2.075h-23.81v-4.563h17.25c-.01-1.297-.3-2.45-.85-3.46a6.095 6.095 0 0 0-2.33-2.413c-.98-.586-2.13-.88-3.44-.88-1.4 0-2.63.337-3.69 1.01a7.022 7.022 0 0 0-2.47 2.62 7.439 7.439 0 0 0-.89 3.534v3.984c0 1.671.31 3.105.92 4.302.62 1.184 1.48 2.095 2.6 2.731 1.11.623 2.4.935 3.89.935 1 0 1.9-.137 2.71-.412a5.92 5.92 0 0 0 2.09-1.253 5.118 5.118 0 0 0 1.35-2.038l6.39.71a9.739 9.739 0 0 1-2.31 4.377c-1.12 1.234-2.56 2.195-4.31 2.88-1.75.673-3.76 1.01-6.01 1.01zm43.82-29.29-10.35 28.729h-7.56l-10.34-28.728h7.3l6.67 21.34h.3l6.7-21.34h7.28zm11.58 11.896v16.833h-6.85V83.53h6.55v4.881h.34a8.206 8.206 0 0 1 3.2-3.834c1.47-.948 3.29-1.422 5.46-1.422 2 0 3.75.424 5.24 1.272 1.5.848 2.66 2.076 3.48 3.685.83 1.608 1.24 3.56 1.23 5.854v18.292h-6.85V95.014c0-1.92-.5-3.423-1.51-4.508-1-1.085-2.38-1.627-4.14-1.627-1.2 0-2.27.261-3.2.785-.92.511-1.64 1.254-2.18 2.226-.51.973-.77 2.15-.77 3.535zm38.47 17.394c-2.92 0-5.44-.598-7.55-1.796-2.11-1.209-3.73-2.917-4.86-5.124-1.14-2.22-1.71-4.832-1.71-7.837 0-2.955.57-5.549 1.71-7.78 1.14-2.245 2.75-3.991 4.8-5.238 2.06-1.259 4.47-1.889 7.24-1.889 1.79 0 3.48.287 5.07.86 1.6.562 3.02 1.434 4.24 2.619 1.23 1.184 2.21 2.693 2.91 4.526.71 1.821 1.06 3.99 1.06 6.51v2.075h-23.81v-4.563h17.25c-.02-1.297-.3-2.45-.85-3.46a6.163 6.163 0 0 0-2.33-2.413c-.99-.586-2.13-.88-3.44-.88-1.4 0-2.63.337-3.69 1.01a6.97 6.97 0 0 0-2.48 2.62c-.58 1.072-.87 2.25-.89 3.534v3.984c0 1.671.31 3.105.93 4.302.62 1.184 1.48 2.095 2.59 2.731 1.11.623 2.41.935 3.9.935.99 0 1.9-.137 2.7-.412a5.964 5.964 0 0 0 2.1-1.253c.6-.548 1.04-1.228 1.34-2.038l6.4.71c-.41 1.671-1.17 3.13-2.31 4.377-1.12 1.234-2.56 2.195-4.31 2.88-1.75.673-3.76 1.01-6.01 1.01zm33.2-29.29v5.237h-16.69V83.53h16.69zm-12.57-6.883h6.84v26.971c0 .91.14 1.609.42 2.095.29.474.67.798 1.13.973.47.174.99.261 1.56.261.42 0 .81-.031 1.17-.093.36-.063.64-.119.83-.168l1.16 5.292a15.8 15.8 0 0 1-1.57.412c-.68.15-1.49.237-2.46.262-1.72.049-3.26-.206-4.64-.767-1.37-.573-2.46-1.459-3.27-2.656-.79-1.197-1.18-2.693-1.17-4.489V76.646z" fill="#000"/>
    </g>
    <defs>
        <clipPath id="qwkp6xzyga">
            <path fill="#fff" transform="translate(0 .953)" d="M0 0h1332v200.75H0z"/>
        </clipPath>
    </defs>
</svg>
