<svg width="157" height="32" viewBox="0 0 157 32" fill="none" xmlns="http://www.w3.org/2000/svg">
    <path d="M32.789 6.264h1.813l4.263 10.128h.146l4.263-10.128h1.813v12.2h-1.42V9.196h-.123l-3.92 9.27h-1.372l-3.92-9.27h-.122v9.27h-1.421V6.264zM51.395 18.68c-.596 0-1.137-.11-1.623-.329a2.767 2.767 0 0 1-1.158-.959c-.286-.42-.428-.93-.428-1.525 0-.524.106-.949.318-1.275.212-.33.496-.588.851-.774a4.552 4.552 0 0 1 1.176-.417c.433-.095.868-.17 1.305-.226a60.77 60.77 0 0 1 1.39-.161c.36-.04.62-.106.784-.197.167-.091.251-.25.251-.477v-.047c0-.588-.165-1.045-.496-1.37-.327-.326-.823-.489-1.488-.489-.69 0-1.231.147-1.623.44-.392.295-.668.609-.827.942l-1.372-.476c.245-.556.572-.99.98-1.3a3.714 3.714 0 0 1 1.347-.654c.49-.128.972-.191 1.446-.191.302 0 .649.036 1.04.107.397.068.779.209 1.146.423.372.215.68.538.925.971.245.433.367 1.013.367 1.74v6.029h-1.445v-1.24h-.073a2.482 2.482 0 0 1-.49.638c-.229.226-.533.419-.913.578-.38.159-.843.238-1.39.238zm.22-1.264c.572 0 1.054-.11 1.446-.328.396-.218.694-.5.894-.846.204-.345.306-.708.306-1.09v-1.286c-.061.071-.196.136-.404.196a6.99 6.99 0 0 1-.71.15 33.353 33.353 0 0 1-1.385.178 5.652 5.652 0 0 0-1.053.232c-.323.103-.584.26-.784.47-.196.207-.294.49-.294.847 0 .488.186.858.557 1.108.376.246.852.37 1.427.37zM59.035 18.465v-9.15h1.396v1.381h.098c.171-.453.482-.82.93-1.102.45-.282.956-.423 1.52-.423.106 0 .239.002.398.006.16.004.28.01.361.018v1.43a4.397 4.397 0 0 0-.337-.054 3.406 3.406 0 0 0-.545-.042c-.457 0-.865.094-1.225.28a2.15 2.15 0 0 0-.845.763c-.204.322-.306.689-.306 1.102v5.79h-1.445zM67.489 15.129l-.025-1.74h.294l4.116-4.075h1.788l-4.385 4.313h-.122l-1.666 1.502zm-1.348 3.336V6.264h1.446v12.2H66.14zm5.978 0-3.675-4.528 1.03-.977 4.483 5.505h-1.838zM79.77 18.655c-.907 0-1.689-.194-2.346-.584a3.958 3.958 0 0 1-1.513-1.644c-.351-.707-.527-1.529-.527-2.466 0-.937.176-1.764.527-2.478.355-.72.85-1.28 1.482-1.68.637-.405 1.38-.608 2.23-.608.49 0 .973.08 1.451.238.478.16.913.417 1.305.775.392.353.704.822.937 1.406.233.583.349 1.302.349 2.156v.596h-7.252V13.15h5.782c0-.517-.106-.977-.319-1.383a2.36 2.36 0 0 0-.894-.959c-.383-.234-.837-.351-1.36-.351-.575 0-1.073.139-1.494.417a2.768 2.768 0 0 0-.961 1.072 3.08 3.08 0 0 0-.337 1.418v.81c0 .691.122 1.277.367 1.758.25.476.594.84 1.035 1.09.441.246.954.37 1.538.37.38 0 .722-.052 1.029-.156.31-.107.577-.266.802-.476.224-.215.398-.48.52-.798l1.397.38c-.147.462-.394.867-.741 1.216a3.625 3.625 0 0 1-1.286.81 4.89 4.89 0 0 1-1.721.286zM90.645 9.314v1.192h-4.876V9.314h4.876zM87.19 7.122h1.446v8.721c0 .398.059.695.177.894a.914.914 0 0 0 .466.393c.192.064.394.096.606.096.16 0 .29-.008.392-.024l.245-.048.294 1.263a3.008 3.008 0 0 1-.41.107c-.176.04-.398.06-.668.06-.408 0-.808-.086-1.2-.256-.388-.171-.71-.431-.968-.78-.253-.35-.38-.791-.38-1.323V7.122zM100.004 11.363l-1.299.358a2.328 2.328 0 0 0-.36-.614 1.745 1.745 0 0 0-.638-.5c-.27-.131-.614-.197-1.035-.197-.576 0-1.055.13-1.44.387-.379.255-.569.578-.569.971 0 .35.13.626.392.829.262.202.67.37 1.225.506l1.397.334c.84.198 1.467.502 1.88.911.412.405.618.927.618 1.567 0 .524-.155.993-.465 1.406-.306.413-.735.738-1.286.977-.551.238-1.193.357-1.923.357-.96 0-1.754-.202-2.383-.607-.629-.405-1.027-.997-1.194-1.776l1.372-.333c.13.492.377.861.74 1.108.368.246.848.37 1.44.37.674 0 1.209-.14 1.605-.418.4-.282.6-.62.6-1.013a1.05 1.05 0 0 0-.343-.798c-.229-.218-.58-.381-1.053-.488l-1.568-.358c-.862-.199-1.495-.506-1.899-.923-.4-.421-.6-.947-.6-1.579 0-.516.149-.973.447-1.37.302-.397.712-.71 1.231-.935.523-.227 1.115-.34 1.776-.34.931 0 1.662.199 2.193.596.535.397.914.921 1.139 1.572zM83.01 31.047v-6.655h.788v2.456h.067a6.89 6.89 0 0 1 .24-.331c.105-.137.254-.258.448-.364.196-.108.46-.163.795-.163.432 0 .813.105 1.142.316.33.21.587.508.772.893.185.386.277.84.277 1.365 0 .529-.092.987-.277 1.375a2.144 2.144 0 0 1-.768.896 2.05 2.05 0 0 1-1.133.316c-.33 0-.593-.054-.792-.16a1.459 1.459 0 0 1-.457-.367 4.927 4.927 0 0 1-.247-.344h-.094v.767h-.762zm.774-2.496c0 .377.057.71.17.998.114.285.28.51.499.672.218.16.485.24.801.24.33 0 .605-.084.825-.253.223-.171.39-.4.502-.689.113-.29.17-.613.17-.968 0-.351-.056-.667-.167-.949a1.469 1.469 0 0 0-.498-.673c-.22-.166-.498-.25-.832-.25-.32 0-.59.08-.808.237a1.427 1.427 0 0 0-.495.657c-.111.28-.167.605-.167.978zM90.897 31.15c-.495 0-.921-.106-1.28-.318a2.16 2.16 0 0 1-.825-.897c-.192-.385-.287-.834-.287-1.345s.096-.962.287-1.352c.194-.392.463-.697.808-.916.348-.221.753-.332 1.217-.332.267 0 .53.044.791.13.26.087.498.228.712.423.214.193.384.448.51.767.128.318.191.71.191 1.176v.325h-3.955v-.663h3.154c0-.282-.058-.533-.174-.754a1.286 1.286 0 0 0-.488-.523 1.394 1.394 0 0 0-.742-.192c-.314 0-.585.076-.815.228-.227.15-.402.344-.524.585a1.68 1.68 0 0 0-.184.773v.442c0 .377.067.696.2.959.136.26.325.458.565.594.24.134.52.202.839.202.207 0 .394-.029.56-.085.17-.058.316-.145.439-.26.122-.117.217-.262.284-.435l.761.208c-.08.251-.215.472-.404.663-.19.188-.423.335-.702.441a2.667 2.667 0 0 1-.938.157zM96.452 26.055v.65h-2.659v-.65h2.66zm-1.884-1.195h.788v4.757c0 .216.033.379.097.487a.498.498 0 0 0 .254.215c.105.034.215.052.331.052.087 0 .158-.005.214-.013l.133-.026.16.688a1.69 1.69 0 0 1-.588.091c-.222 0-.44-.046-.654-.14a1.294 1.294 0 0 1-.528-.425c-.138-.19-.207-.431-.207-.721V24.86zM99.148 31.163c-.325 0-.62-.06-.885-.178a1.508 1.508 0 0 1-.632-.523 1.445 1.445 0 0 1-.233-.832c0-.286.058-.518.173-.696.116-.18.27-.32.465-.422.194-.102.407-.178.641-.227.236-.052.473-.094.712-.124.312-.039.564-.068.758-.088.196-.021.339-.057.428-.107.091-.05.137-.137.137-.26v-.026c0-.32-.091-.57-.271-.747-.178-.178-.449-.267-.812-.267-.376 0-.671.08-.885.24-.214.161-.364.332-.451.514l-.748-.26c.133-.303.311-.54.534-.708.225-.171.47-.29.735-.358.267-.069.53-.104.789-.104.164 0 .354.02.567.059.216.037.425.114.625.23.203.117.371.294.505.53.133.236.2.553.2.95v3.288h-.788v-.676h-.04a1.361 1.361 0 0 1-.268.347c-.124.124-.29.229-.498.316-.207.086-.46.13-.758.13zm.12-.688c.312 0 .575-.06.789-.18.216-.118.378-.272.488-.46.111-.189.167-.387.167-.595v-.702c-.034.039-.107.075-.221.107-.111.03-.24.058-.387.081a18.07 18.07 0 0 1-.755.098 3.084 3.084 0 0 0-.575.127.995.995 0 0 0-.428.256c-.106.113-.16.267-.16.462 0 .266.101.468.304.604.205.134.464.202.778.202zM12.958.164C6.078.164.5 5.59.5 12.282.5 18.973 6.079 24.4 12.958 24.4c6.88 0 12.459-5.427 12.459-12.118 0-6.692-5.58-12.118-12.459-12.118z" fill="#fff"/>
    <path d="M19.3 6.008c-.693-.674-2.553.372-4.012 1.377a5.575 5.575 0 0 0-2.37-.526c-3.05 0-5.524 2.412-5.524 5.374 0 .827.2 1.607.547 2.31-1.045 1.426-2.115 3.229-1.422 3.902.158.154.37.23.65.23.571 0 1.404-.33 2.48-.992.291-.178.601-.384.911-.603a5.53 5.53 0 0 0 2.364.532c3.045 0 5.525-2.412 5.525-5.373 0-.828-.201-1.603-.547-2.3.224-.302.431-.603.62-.88 1.002-1.55 1.27-2.572.784-3.045l-.007-.006zM17.603 9.4c-.31.432-.663.893-1.07 1.372l-.018.017c-.115.142-.243.284-.365.426-.036.047-.079.089-.115.13-.11.124-.213.248-.328.372-.067.077-.14.154-.207.225-.097.1-.188.2-.285.307-.104.113-.213.225-.323.337-.073.071-.14.142-.212.219-.189.19-.383.384-.578.573-.194.19-.389.379-.583.556-.08.077-.158.142-.237.213a8.28 8.28 0 0 1-.34.307c-.104.095-.207.19-.316.278-.08.071-.158.136-.237.207-.122.106-.25.213-.371.313-.049.042-.103.083-.152.124-.14.119-.286.237-.42.343a.335.335 0 0 0-.048.036c-.48.384-.942.72-1.373 1.01-.231.16-.462.314-.675.45-1.604.981-2.291.987-2.443.84-.2-.196.018-1.154 1.33-2.998.347.538.785 1.011 1.295 1.401 1.106-.733 2.535-1.862 4.188-3.464 1.652-1.602 2.795-2.991 3.555-4.073a5.583 5.583 0 0 0-1.44-1.259c1.896-1.277 2.88-1.484 3.08-1.294.159.153.146.821-.862 2.376-.134.207-.286.42-.444.638l-.006.018z" fill="#000"/>
    <path d="M141.478 9.164h-23.774c-3.979 0-7.204 3.324-7.204 7.424 0 4.1 3.225 7.424 7.204 7.424h23.774c3.979 0 7.205-3.324 7.205-7.424 0-4.1-3.226-7.424-7.205-7.424z" fill="#fff"/>
    <path d="M118.931 19.37h-1.791v-5.226h1.827c.525 0 .976.105 1.353.314.378.207.668.506.872.896.203.39.304.855.304 1.398 0 .545-.102 1.013-.307 1.404a2.108 2.108 0 0 1-.88.9c-.382.21-.841.314-1.378.314zm-.834-.819h.788c.368 0 .675-.066.921-.199a1.28 1.28 0 0 0 .555-.6c.124-.267.186-.6.186-1s-.062-.732-.186-.995a1.257 1.257 0 0 0-.55-.595c-.24-.133-.54-.199-.898-.199h-.816v3.588zm6.023.896c-.398 0-.741-.082-1.03-.245a1.657 1.657 0 0 1-.663-.7c-.155-.302-.233-.659-.233-1.069 0-.403.078-.757.233-1.061.156-.306.375-.545.655-.715.281-.172.61-.258.989-.258.244 0 .475.04.691.118.218.077.412.196.578.357.169.162.302.368.398.618.096.248.144.544.144.888v.283h-3.249v-.622h2.354a.996.996 0 0 0-.116-.473.841.841 0 0 0-.318-.329.9.9 0 0 0-.469-.12.919.919 0 0 0-.504.138.96.96 0 0 0-.338.357 1.024 1.024 0 0 0-.121.483v.543c0 .228.042.424.126.587a.892.892 0 0 0 .354.373c.151.085.329.127.531.127.136 0 .26-.018.369-.056a.818.818 0 0 0 .287-.17.707.707 0 0 0 .183-.279l.873.097a1.33 1.33 0 0 1-.316.597 1.52 1.52 0 0 1-.588.393 2.278 2.278 0 0 1-.82.138zm5.98-3.996-1.412 3.92h-1.032l-1.412-3.92h.997l.91 2.911h.042l.913-2.911h.994zm1.581 1.623v2.296h-.935v-3.92h.894v.667h.046a1.12 1.12 0 0 1 .436-.524c.201-.129.45-.194.746-.194.273 0 .511.058.715.174.204.116.362.283.474.503.114.22.17.486.168.799v2.495h-.934v-2.352c0-.262-.069-.468-.207-.616-.136-.148-.324-.222-.564-.222a.88.88 0 0 0-.437.108.756.756 0 0 0-.297.303c-.07.133-.105.294-.105.483zm5.249 2.373c-.397 0-.741-.082-1.03-.245a1.67 1.67 0 0 1-.663-.7c-.155-.302-.233-.659-.233-1.069 0-.403.078-.757.233-1.061.156-.306.375-.545.655-.715.281-.172.61-.258.989-.258.244 0 .474.04.692.118.218.077.411.196.577.357.169.162.302.368.398.618.097.248.144.544.144.888v.283h-3.249v-.622h2.354a.996.996 0 0 0-.116-.473.841.841 0 0 0-.318-.329.897.897 0 0 0-.469-.12.921.921 0 0 0-.504.138.96.96 0 0 0-.338.357 1.024 1.024 0 0 0-.121.483v.543c0 .228.042.424.126.587a.898.898 0 0 0 .354.373c.151.085.329.127.532.127.135 0 .259-.018.369-.056a.823.823 0 0 0 .286-.17.707.707 0 0 0 .183-.279l.873.097c-.055.228-.16.427-.315.597-.153.169-.349.3-.588.393a2.28 2.28 0 0 1-.821.138zm4.532-3.996v.714h-2.278v-.714h2.278zm-1.716-.94h.934v3.68c0 .125.019.22.057.286.04.065.091.11.155.133a.601.601 0 0 0 .212.036.935.935 0 0 0 .16-.013c.049-.008.088-.016.113-.023l.158.722a1.762 1.762 0 0 1-.55.092 1.545 1.545 0 0 1-.633-.105.983.983 0 0 1-.446-.362 1.072 1.072 0 0 1-.16-.612V14.51z" fill="#000"/>
</svg>
