<svg xmlns="http://www.w3.org/2000/svg" xmlns:xlink="http://www.w3.org/1999/xlink" width="312" zoomAndPan="magnify" viewBox="20 0 234 98.999996" height="132" preserveAspectRatio="xMidYMid meet" version="1.0"><defs><g/><clipPath id="4e737717a8"><path d="M 23.152344 35.40625 L 51.652344 35.40625 L 51.652344 63.90625 L 23.152344 63.90625 Z M 23.152344 35.40625 " clip-rule="nonzero"/></clipPath><clipPath id="8f3700f678"><path d="M 29.105469 42 L 45.605469 42 L 45.605469 58 L 29.105469 58 Z M 29.105469 42 " clip-rule="nonzero"/></clipPath></defs><g clip-path="url(#4e737717a8)"><path fill="#ffffff" d="M 37.402344 35.40625 C 29.53125 35.40625 23.152344 41.785156 23.152344 49.65625 C 23.152344 57.527344 29.53125 63.90625 37.402344 63.90625 C 45.273438 63.90625 51.652344 57.527344 51.652344 49.65625 C 51.652344 41.785156 45.273438 35.40625 37.402344 35.40625 " fill-opacity="1" fill-rule="nonzero"/></g><g clip-path="url(#8f3700f678)"><path fill="#000000" d="M 44.988281 42.472656 C 44.171875 41.65625 41.976562 42.921875 40.253906 44.148438 C 39.40625 43.738281 38.457031 43.507812 37.453125 43.507812 C 33.859375 43.507812 30.933594 46.433594 30.933594 50.027344 C 30.933594 51.03125 31.164062 51.980469 31.574219 52.828125 C 30.339844 54.5625 29.078125 56.75 29.894531 57.566406 C 30.082031 57.75 30.335938 57.84375 30.660156 57.84375 C 31.339844 57.84375 32.320312 57.441406 33.589844 56.636719 C 33.933594 56.417969 34.296875 56.171875 34.664062 55.90625 C 35.511719 56.3125 36.453125 56.550781 37.453125 56.550781 C 41.050781 56.550781 43.976562 53.625 43.976562 50.027344 C 43.976562 49.027344 43.738281 48.085938 43.332031 47.238281 C 43.597656 46.871094 43.84375 46.507812 44.0625 46.164062 C 45.25 44.285156 45.5625 43.042969 44.988281 42.472656 Z M 42.988281 46.59375 C 42.625 47.117188 42.203125 47.671875 41.726562 48.261719 C 41.71875 48.269531 41.710938 48.277344 41.707031 48.285156 C 41.566406 48.453125 41.421875 48.628906 41.273438 48.800781 C 41.230469 48.855469 41.183594 48.910156 41.136719 48.964844 C 41.011719 49.113281 40.878906 49.261719 40.746094 49.414062 C 40.667969 49.503906 40.582031 49.597656 40.5 49.6875 C 40.390625 49.8125 40.277344 49.933594 40.164062 50.058594 C 40.039062 50.195312 39.910156 50.332031 39.78125 50.46875 C 39.699219 50.554688 39.617188 50.644531 39.53125 50.734375 C 39.308594 50.964844 39.082031 51.195312 38.851562 51.425781 C 38.621094 51.65625 38.390625 51.882812 38.160156 52.105469 C 38.070312 52.191406 37.976562 52.277344 37.886719 52.363281 C 37.753906 52.488281 37.621094 52.613281 37.484375 52.738281 C 37.359375 52.851562 37.238281 52.960938 37.113281 53.074219 C 37.023438 53.15625 36.929688 53.242188 36.835938 53.324219 C 36.6875 53.453125 36.542969 53.578125 36.398438 53.703125 C 36.335938 53.753906 36.277344 53.804688 36.21875 53.855469 C 36.050781 53.996094 35.882812 54.136719 35.71875 54.269531 C 35.699219 54.285156 35.679688 54.300781 35.664062 54.316406 C 35.09375 54.78125 34.546875 55.191406 34.042969 55.546875 C 33.769531 55.738281 33.5 55.921875 33.238281 56.085938 C 31.351562 57.28125 30.539062 57.289062 30.355469 57.105469 C 30.121094 56.871094 30.375 55.703125 31.925781 53.46875 C 32.332031 54.121094 32.847656 54.699219 33.453125 55.167969 C 34.757812 54.273438 36.445312 52.914062 38.390625 50.964844 C 40.339844 49.019531 41.699219 47.332031 42.589844 46.027344 C 42.121094 45.421875 41.542969 44.910156 40.894531 44.5 C 43.128906 42.953125 44.296875 42.703125 44.527344 42.933594 C 44.710938 43.117188 44.703125 43.929688 43.511719 45.816406 C 43.351562 46.066406 43.175781 46.332031 42.988281 46.59375 Z M 42.988281 46.59375 " fill-opacity="1" fill-rule="nonzero"/></g><g fill="#ffffff" fill-opacity="1"><g transform="translate(56.031555, 55.757508)"><g><path d="M 1.722656 0 L 5.171875 0 L 5.171875 -16.089844 L 1.722656 -16.089844 Z M 1.722656 0 "/></g></g></g><g fill="#ffffff" fill-opacity="1"><g transform="translate(62.92637, 55.757508)"><g><path d="M 1.355469 0 L 4.550781 0 L 4.550781 -7.195312 C 5.035156 -7.859375 5.882812 -8.574219 7.011719 -8.574219 C 8.226562 -8.574219 9.148438 -7.882812 9.148438 -6.414062 L 9.148438 0 L 12.34375 0 L 12.34375 -6.828125 C 12.34375 -9.378906 10.757812 -11.355469 7.859375 -11.355469 C 6.273438 -11.355469 5.035156 -10.617188 4.183594 -9.628906 L 4.183594 -11.03125 L 1.355469 -11.03125 Z M 1.355469 0 "/></g></g></g><g fill="#ffffff" fill-opacity="1"><g transform="translate(76.486175, 55.757508)"><g><path d="M 6.757812 0.320312 C 8.160156 0.320312 9.402344 0.046875 10.480469 -0.414062 L 10.480469 -3.242188 C 9.675781 -2.757812 8.527344 -2.460938 7.378906 -2.460938 C 5.652344 -2.460938 4 -3.402344 4 -5.515625 C 4 -7.746094 5.699219 -8.597656 7.425781 -8.597656 C 8.480469 -8.597656 9.585938 -8.273438 10.367188 -7.769531 L 10.367188 -10.574219 C 9.378906 -11.101562 8.183594 -11.378906 6.964844 -11.378906 C 3.90625 -11.378906 0.734375 -9.585938 0.734375 -5.355469 C 0.734375 -1.425781 3.746094 0.320312 6.757812 0.320312 Z M 6.757812 0.320312 "/></g></g></g><g fill="#ffffff" fill-opacity="1"><g transform="translate(87.770689, 55.757508)"><g><path d="M 7.125 0.320312 C 8.78125 0.320312 10.136719 0.0703125 11.171875 -0.367188 L 11.171875 -2.875 C 10.226562 -2.480469 9.101562 -2.230469 7.835938 -2.230469 C 6.023438 -2.230469 4.320312 -2.875 3.953125 -4.480469 L 11.722656 -4.480469 C 12.457031 -7.746094 10.988281 -11.355469 6.414062 -11.355469 C 3.929688 -11.355469 0.734375 -9.675781 0.734375 -5.515625 C 0.734375 -1.679688 3.632812 0.320312 7.125 0.320312 Z M 3.929688 -6.550781 C 3.976562 -8.066406 5.171875 -8.917969 6.527344 -8.917969 C 8.503906 -8.917969 8.941406 -7.308594 8.804688 -6.550781 Z M 3.929688 -6.550781 "/></g></g></g><g fill="#ffffff" fill-opacity="1"><g transform="translate(100.365221, 55.757508)"><g><path d="M 1.355469 5.054688 L 4.550781 5.054688 L 4.550781 -1.148438 C 5.261719 -0.390625 6.4375 0.320312 8.183594 0.320312 C 11.675781 0.320312 13.5625 -2.503906 13.5625 -5.515625 C 13.5625 -8.527344 11.675781 -11.355469 8.183594 -11.355469 C 6.160156 -11.355469 4.894531 -10.410156 4.183594 -9.421875 L 4.183594 -11.03125 L 1.355469 -11.03125 Z M 7.402344 -2.367188 C 6.023438 -2.367188 4.988281 -3.265625 4.550781 -4.207031 L 4.550781 -6.828125 C 4.988281 -7.769531 6.023438 -8.664062 7.402344 -8.664062 C 9.238281 -8.664062 10.296875 -7.238281 10.296875 -5.515625 C 10.296875 -3.792969 9.238281 -2.367188 7.402344 -2.367188 Z M 7.402344 -2.367188 "/></g></g></g><g fill="#ffffff" fill-opacity="1"><g transform="translate(114.683454, 55.757508)"><g><path d="M 6.160156 0.320312 C 7.261719 0.320312 8.273438 0.136719 9.125 -0.160156 L 9.125 -2.734375 C 8.480469 -2.503906 7.859375 -2.390625 7.125 -2.390625 C 5.929688 -2.390625 5.378906 -2.875 5.378906 -4.023438 L 5.378906 -8.34375 L 8.847656 -8.34375 L 8.847656 -11.03125 L 5.378906 -11.03125 L 5.378906 -15.007812 L 2.183594 -14.25 L 2.183594 -11.03125 L 0.320312 -11.03125 L 0.320312 -8.34375 L 2.183594 -8.34375 L 2.183594 -3.402344 C 2.183594 -0.667969 4.023438 0.320312 6.160156 0.320312 Z M 6.160156 0.320312 "/></g></g></g><g fill="#ffffff" fill-opacity="1"><g transform="translate(129.047133, 55.859011)"><g><path d="M 2.023438 0 L 3.871094 0 L 3.871094 -11.898438 L 9.390625 -3.628906 L 10.535156 -3.628906 L 16.054688 -11.898438 L 16.054688 0 L 17.902344 0 L 17.902344 -15.398438 L 16.320312 -15.398438 L 9.964844 -5.894531 L 3.605469 -15.398438 L 2.023438 -15.398438 Z M 2.023438 0 "/></g></g></g><g fill="#ffffff" fill-opacity="1"><g transform="translate(148.973554, 55.859011)"><g><path d="M 4.464844 0.265625 C 6.179688 0.265625 7.523438 -0.265625 8.578125 -1.144531 L 8.601562 -1.078125 C 8.929688 -0.199219 9.679688 0.132812 10.515625 0.132812 C 10.953125 0.132812 11.414062 0.0429688 11.832031 -0.109375 L 11.832031 -1.539062 C 11.570312 -1.453125 11.285156 -1.386719 11.019531 -1.386719 C 10.558594 -1.386719 10.207031 -1.5625 10.207031 -2.199219 L 10.207031 -6.335938 C 10.207031 -9.28125 8.425781 -10.820312 5.609375 -10.820312 C 3.871094 -10.820312 2.417969 -10.402344 1.582031 -10.117188 L 1.582031 -8.402344 C 2.507812 -8.796875 3.804688 -9.195312 5.433594 -9.195312 C 7.367188 -9.195312 8.445312 -8.136719 8.445312 -6.554688 L 8.445312 -6.179688 C 7.566406 -6.378906 6.445312 -6.511719 5.519531 -6.511719 C 3.253906 -6.511719 0.746094 -5.675781 0.746094 -2.949219 C 0.746094 -0.726562 2.59375 0.265625 4.464844 0.265625 Z M 4.839844 -1.253906 C 3.671875 -1.253906 2.550781 -1.804688 2.550781 -3.035156 C 2.550781 -4.574219 4.222656 -5.035156 5.761719 -5.035156 C 6.621094 -5.035156 7.699219 -4.882812 8.445312 -4.730469 L 8.445312 -2.792969 C 7.523438 -1.804688 6.179688 -1.253906 4.839844 -1.253906 Z M 4.839844 -1.253906 "/></g></g></g><g fill="#ffffff" fill-opacity="1"><g transform="translate(160.938214, 55.859011)"><g><path d="M 1.628906 0 L 3.386719 0 L 3.386719 -6.578125 C 4.023438 -8.269531 5.695312 -9.261719 7.765625 -9.019531 L 7.765625 -10.777344 C 5.917969 -10.933594 4.046875 -10.074219 3.210938 -8.6875 L 3.210938 -10.558594 L 1.628906 -10.558594 Z M 1.628906 0 "/></g></g></g><g fill="#ffffff" fill-opacity="1"><g transform="translate(168.98796, 55.859011)"><g><path d="M 1.628906 0 L 3.386719 0 L 3.386719 -4.574219 L 4.796875 -4.574219 L 9.324219 0 L 11.394531 0 L 6.355469 -5.390625 L 10.910156 -10.558594 L 8.863281 -10.558594 L 4.859375 -6.113281 L 3.386719 -6.113281 L 3.386719 -15.398438 L 1.628906 -15.398438 Z M 1.628906 0 "/></g></g></g><g fill="#ffffff" fill-opacity="1"><g transform="translate(180.446751, 55.859011)"><g><path d="M 6.753906 0.265625 C 8.136719 0.265625 9.523438 0 10.492188 -0.507812 L 10.492188 -2.222656 C 9.589844 -1.714844 8.3125 -1.363281 7.015625 -1.363281 C 4.882812 -1.363281 2.882812 -2.289062 2.660156 -4.507812 L 11.0625 -4.507812 C 11.722656 -7.5 10.226562 -10.820312 6.160156 -10.820312 C 3.652344 -10.820312 0.902344 -8.972656 0.902344 -5.277344 C 0.902344 -1.519531 3.628906 0.265625 6.753906 0.265625 Z M 2.660156 -6.046875 C 2.792969 -8.117188 4.464844 -9.195312 6.269531 -9.195312 C 8.953125 -9.195312 9.65625 -7.171875 9.503906 -6.046875 Z M 2.660156 -6.046875 "/></g></g></g><g fill="#ffffff" fill-opacity="1"><g transform="translate(192.499383, 55.859011)"><g><path d="M 5.828125 0.242188 C 6.839844 0.242188 7.875 0.0429688 8.667969 -0.242188 L 8.667969 -1.871094 C 7.960938 -1.582031 7.171875 -1.386719 6.335938 -1.386719 C 4.796875 -1.386719 4.070312 -1.871094 4.070312 -3.476562 L 4.070312 -8.929688 L 8.292969 -8.929688 L 8.292969 -10.558594 L 4.070312 -10.558594 L 4.070312 -14.273438 L 2.332031 -13.835938 L 2.332031 -10.558594 L 0.351562 -10.558594 L 0.351562 -8.929688 L 2.332031 -8.929688 L 2.332031 -3.167969 C 2.332031 -0.859375 3.78125 0.242188 5.828125 0.242188 Z M 5.828125 0.242188 "/></g></g></g><g fill="#ffffff" fill-opacity="1"><g transform="translate(201.516859, 55.859011)"><g><path d="M 5.148438 0.265625 C 7.433594 0.265625 9.503906 -0.507812 9.503906 -2.707031 C 9.503906 -6.511719 2.792969 -5.542969 2.792969 -7.832031 C 2.792969 -8.863281 4.003906 -9.238281 5.148438 -9.238281 C 6.421875 -9.238281 7.894531 -8.820312 8.777344 -8.25 L 8.777344 -9.917969 C 7.785156 -10.449219 6.445312 -10.820312 5.035156 -10.820312 C 3.058594 -10.820312 1.011719 -9.964844 1.011719 -7.785156 C 1.011719 -4.003906 7.742188 -4.882812 7.742188 -2.660156 C 7.742188 -1.605469 6.554688 -1.363281 5.058594 -1.363281 C 3.738281 -1.363281 2.132812 -1.757812 1.054688 -2.484375 L 1.054688 -0.769531 C 2.046875 -0.132812 3.652344 0.265625 5.148438 0.265625 Z M 5.148438 0.265625 "/></g></g></g></svg>