<svg width="17" height="17" viewBox="0 0 17 17" fill="none" xmlns="http://www.w3.org/2000/svg">
    <path d="M15.525 7.025h-.96a6.205 6.205 0 0 0-.733-1.77l.678-.68a1.475 1.475 0 0 0-2.086-2.085l-.678.678a6.202 6.202 0 0 0-1.771-.734v-.959a1.475 1.475 0 1 0-2.95 0v.96a6.205 6.205 0 0 0-1.77.733l-.68-.678A1.475 1.475 0 1 0 2.49 4.576l.678.678a6.204 6.204 0 0 0-.734 1.771h-.959a1.475 1.475 0 1 0 0 2.95h.96c.153.633.403 1.23.733 1.77l-.678.68a1.475 1.475 0 0 0 2.086 2.085l.678-.678c.542.33 1.137.58 1.771.733v.96a1.475 1.475 0 1 0 2.95 0v-.96a6.204 6.204 0 0 0 1.77-.733l.68.678a1.47 1.47 0 0 0 1.042.432 1.475 1.475 0 0 0 1.043-2.518l-.678-.678a6.2 6.2 0 0 0 .733-1.77h.96a1.475 1.475 0 1 0 0-2.951zM8.5 11.339a2.84 2.84 0 1 1 0-5.678 2.84 2.84 0 0 1 0 5.678z" fill="#737373"/>
</svg>
