<svg width="20" height="20" viewBox="0 0 20 20" fill="none" xmlns="http://www.w3.org/2000/svg">
    <g clip-path="url(#iolcnhq1ha)" fill="#fff">
        <path d="M18.03 3.387c-.109-1.33-1.274-2.382-2.693-2.382H2.701C1.21 1.005 0 2.165 0 3.59v11.953c0 1.424 1.212 2.583 2.7 2.583h14.6c1.488 0 2.7-1.159 2.7-2.583V5.874c0-1.182-.835-2.181-1.97-2.487zM2.7 2.212h12.637c.687 0 1.262.463 1.405 1.079H2.701c-.529 0-1.022.146-1.44.399v-.101c0-.76.646-1.377 1.44-1.377zm14.6 14.706H2.7c-.793 0-1.438-.617-1.438-1.376V5.874c0-.759.645-1.376 1.439-1.376h14.598c.794 0 1.44.617 1.44 1.376V7.98h-4.023c-1.595 0-2.891 1.24-2.891 2.765 0 1.525 1.296 2.766 2.89 2.766h4.023v2.03c0 .76-.645 1.377-1.439 1.377zm1.438-4.614h-4.022c-.899 0-1.63-.7-1.63-1.559s.731-1.558 1.63-1.558h4.022v3.117z"/>
        <path d="M14.95 11.42c.363 0 .657-.282.657-.629 0-.347-.294-.628-.657-.628-.363 0-.657.281-.657.628s.294.629.657.629z"/>
    </g>
    <defs>
        <clipPath id="iolcnhq1ha">
            <path fill="#fff" d="M0 0h20v19.13H0z"/>
        </clipPath>
    </defs>
</svg>
