<svg width="84" height="84" viewBox="0 0 84 84" fill="none" xmlns="http://www.w3.org/2000/svg">
<path d="M69.7821 36.0684C74.2766 30.6595 73.4759 22.6545 67.9966 18.2172C62.5173 13.7831 54.4001 14.5731 49.9024 19.9787C47.723 22.5972 46.7124 25.8973 47.0482 29.2706C47.3872 32.6408 49.0339 35.6829 51.688 37.8299C54.074 39.7603 56.9606 40.7 59.831 40.7C61.3065 40.7 62.7756 40.4483 64.1705 39.9578C64.4998 41.3179 64.671 42.7132 64.671 44.137C64.671 54.0533 56.4956 62.1188 46.4444 62.1188C43.0735 62.1188 39.8189 61.2046 36.9937 59.5099C37.8074 58.9461 38.6081 58.3695 39.3895 57.7771C43.5352 54.633 47.1386 51.1864 49.812 47.813C50.8 46.5675 50.574 44.7678 49.3116 43.793C48.0491 42.8183 46.2248 43.0381 45.2368 44.2868C42.8604 47.2874 39.6123 50.3837 35.8507 53.2378C33.936 54.6904 32.1182 55.9104 30.4231 56.9329C30.3811 56.9584 30.3359 56.9807 30.2972 57.0094C23.0905 61.3288 18.102 62.0137 17.1398 61.3639C17.0494 61.0517 17.1172 59.5896 18.9124 56.7959C20.7335 53.9673 23.6943 50.75 27.2556 47.7366L28.3599 46.8032L28.263 45.373C28.234 44.9684 28.2211 44.5543 28.2211 44.1434C28.2211 37.0049 32.5024 30.5385 39.1312 27.6684C40.6003 27.0313 41.2654 25.343 40.6229 23.8936C39.9771 22.4443 38.2658 21.7881 36.7967 22.422C28.0596 26.2063 22.4157 34.7305 22.4157 44.1402C22.4157 44.1944 22.4157 44.2517 22.4157 44.3059C15.1218 50.7659 8.49633 59.6788 12.5323 64.8551C13.8432 66.537 15.8483 67.2633 18.2796 67.2633C22.0637 67.2633 26.8714 65.4953 31.6662 62.8323C35.8765 66.0783 41.0458 67.8462 46.4476 67.8462C59.6986 67.8462 70.4796 57.21 70.4796 44.137C70.4796 41.5696 70.063 39.0658 69.2558 36.664C69.4334 36.4761 69.611 36.2754 69.7821 36.0684ZM55.372 33.4022C53.9158 32.2235 53.0118 30.5576 52.8277 28.7068C52.6437 26.8593 53.199 25.05 54.3937 23.6133C55.7853 21.9378 57.8098 21.0713 59.8504 21.0713C61.4228 21.0713 63.0081 21.5874 64.3158 22.645C67.3218 25.0786 67.7609 29.4681 65.2973 32.4338C62.8305 35.4026 58.378 35.8358 55.372 33.4022Z" fill="#C4FFC4"/>
</svg>
