<svg width="74" height="74" viewBox="0 0 74 74" fill="none" xmlns="http://www.w3.org/2000/svg">
    <path d="M37 0C16.569 0 0 16.569 0 37s16.569 37 37 37 37-16.569 37-37S57.431 0 37 0z" fill="#11304D"/>
    <path fill-rule="evenodd" clip-rule="evenodd" d="M40.364 34.822c0 2.005.047 3.676-.964 5.458-.817 1.449-2.117 2.338-3.56 2.338-1.974 0-3.13-1.503-3.13-3.73 0-4.383 3.932-5.18 7.654-5.18v1.114zm5.187 12.544c-.34.305-.833.327-1.216.12-1.71-1.42-2.016-2.077-2.95-3.429-2.823 2.877-4.824 3.74-8.482 3.74-4.331 0-7.7-2.673-7.7-8.019 0-4.176 2.262-7.016 5.486-8.409 2.792-1.225 6.691-1.447 9.675-1.782v-.668c0-1.225.095-2.673-.626-3.731-.626-.947-1.83-1.336-2.888-1.336-1.962 0-3.707 1.005-4.135 3.089-.09.464-.427.922-.895.946l-4.986-.54c-.42-.095-.889-.433-.767-1.076 1.145-6.05 6.609-7.877 11.505-7.877 2.503 0 5.775.668 7.749 2.562 2.503 2.339 2.262 5.457 2.262 8.854v8.015c0 2.411 1 3.47 1.941 4.77.33.467.404 1.024-.016 1.365a224.68 224.68 0 0 0-3.946 3.418l-.01-.012zm7.05 1.426c-4.777 2.027-9.969 3.006-14.691 3.006-7.003 0-13.782-1.92-19.263-5.11-.48-.28-.835.212-.437.573 5.081 4.588 11.795 7.345 19.251 7.345 5.32 0 11.498-1.674 15.76-4.818.705-.522.101-1.301-.62-.996zm1.273 3.83c-.156.39.179.546.53.251 2.287-1.913 2.877-5.92 2.409-6.499-.465-.573-4.461-1.068-6.901.645-.375.265-.31.628.106.578 1.374-.165 4.432-.532 4.977.166.545.699-.606 3.574-1.121 4.86z" fill="#fff"/>
    <path d="M42.855 43.169c-5.421 4.83-10.935 8.469-15.444 10.46-2.26.996-4.22 1.558-5.763 1.676-1.56.118-2.52-.224-3.036-.804-.516-.58-.746-1.571-.45-3.108.294-1.52 1.078-3.401 2.328-5.532 2.494-4.251 6.742-9.31 12.163-14.141 5.42-4.83 10.934-8.47 15.444-10.46 2.26-.997 4.22-1.559 5.763-1.676 1.56-.119 2.519.224 3.035.804.517.58.747 1.57.45 3.107-.294 1.52-1.077 3.402-2.327 5.532-2.495 4.252-6.742 9.311-12.163 14.142z" stroke="#fff" stroke-width="1.8"/>
    <path d="M54.5 25C50 38 29 53.5 21 53.5" stroke="#11304D" stroke-width="1.8" stroke-linecap="round"/>
</svg>
