<svg width="74" height="74" viewBox="0 0 74 74" fill="none" xmlns="http://www.w3.org/2000/svg">
    <path d="M37 0C16.569 0 0 16.569 0 37s16.569 37 37 37 37-16.569 37-37S57.431 0 37 0z" fill="#fff"/>
    <path d="M42.828 19c.372 2.035-.557 4.07-1.671 5.55-1.114 1.48-3.157 2.775-5.2 2.59-.372-2.035.557-3.885 1.671-5.365 1.3-1.48 3.343-2.59 5.2-2.775zm5.943 32.19c.929-1.48 1.486-2.405 2.229-4.07-5.757-2.22-6.686-10.36-.929-13.32-1.671-2.22-4.085-3.33-6.5-3.33-1.671 0-2.785.37-3.9.74-.928.37-1.671.555-2.6.555-1.114 0-1.857-.37-2.971-.74-1.115-.37-2.23-.74-3.53-.74-2.6 0-5.385 1.48-7.056 4.255-2.415 3.7-2.043 10.915 1.857 16.835C27.042 53.595 28.899 56 31.314 56c1.114 0 1.671-.37 2.414-.555.929-.37 1.857-.74 3.343-.74 1.672 0 2.414.37 3.343.74.743.37 1.3.555 2.414.555 2.6 0 4.458-2.775 5.943-4.81z" fill="#000" stroke="#000" stroke-width="1.5" stroke-miterlimit="10" stroke-linecap="round" stroke-linejoin="round"/>
    <path d="M42.855 43.169c-5.421 4.83-10.935 8.469-15.444 10.46-2.26.996-4.22 1.558-5.763 1.676-1.56.118-2.52-.224-3.036-.804-.516-.58-.746-1.571-.45-3.108.294-1.52 1.078-3.401 2.328-5.532 2.494-4.251 6.742-9.31 12.163-14.141 5.42-4.83 10.934-8.47 15.444-10.46 2.26-.997 4.22-1.559 5.763-1.676 1.56-.119 2.519.224 3.035.804.517.58.747 1.57.45 3.107-.294 1.52-1.077 3.402-2.327 5.532-2.495 4.252-6.742 9.311-12.163 14.142z" stroke="#000" stroke-width="1.8"/>
    <path d="M54.5 25c-4.5 13-25 28.5-33 28.5" stroke="#fff" stroke-width="1.8" stroke-linecap="round"/>
</svg>
