<svg width="74" height="74" viewBox="0 0 74 74" fill="none" xmlns="http://www.w3.org/2000/svg">
    <path d="M37 0C16.569 0 0 16.569 0 37s16.569 37 37 37 37-16.569 37-37S57.431 0 37 0z" fill="red"/>
    <g clip-path="url(#nt4j06kdja)" fill="#fff">
        <path d="m37.5 59.756 5.41-30.432c5.156 0 6.79.573 7.02 2.876 0 0 3.462-1.292 5.205-3.912-6.813-3.156-13.65-3.303-13.65-3.303l-3.998 4.863h.013l-3.998-4.863s-6.837.147-13.65 3.303c1.743 2.62 5.204 3.912 5.204 3.912.244-2.303 1.865-2.876 6.984-2.876l5.46 30.432z"/>
        <path d="M37.5 23.584c5.508-.049 11.797.853 18.257 3.668.865-1.548 1.084-2.242 1.084-2.242A53.083 53.083 0 0 0 37.5 21.244a53.083 53.083 0 0 0-19.342 3.766c.317.767.67 1.511 1.085 2.242 6.447-2.815 12.748-3.705 18.257-3.668z"/>
    </g>
    <path d="M42.855 43.169c-5.421 4.83-10.935 8.469-15.445 10.46-2.26.996-4.22 1.558-5.762 1.676-1.56.118-2.52-.224-3.036-.804-.516-.58-.747-1.571-.45-3.108.294-1.52 1.077-3.401 2.327-5.532 2.495-4.251 6.743-9.31 12.164-14.141 5.42-4.83 10.934-8.47 15.444-10.46 2.26-.997 4.22-1.559 5.763-1.676 1.56-.119 2.519.224 3.035.804.516.58.747 1.57.45 3.107-.294 1.52-1.077 3.402-2.327 5.532-2.495 4.252-6.742 9.311-12.163 14.142z" stroke="#fff" stroke-width="1.8"/>
    <path d="M55 21.5c4.5 6-21.5 30.5-29.5 30.5" stroke="red" stroke-width="1.8" stroke-linecap="round"/>
    <defs>
        <clipPath id="nt4j06kdja">
            <path fill="#fff" transform="translate(18 21)" d="M0 0h39v39H0z"/>
        </clipPath>
    </defs>
</svg>
